<svg width="440" height="160" viewBox="0 0 440 160" fill="none" xmlns="http://www.w3.org/2000/svg">
<path fill-rule="evenodd" clip-rule="evenodd" d="M246.04 130.615C245.733 131.481 245.315 132.185 244.782 132.729C244.252 133.283 243.656 133.693 242.976 133.953C242.305 134.219 241.606 134.344 240.871 134.344C239.743 134.336 238.765 134.06 237.918 133.497C237.069 132.943 236.418 132.158 235.944 131.141C235.467 130.125 235.236 128.928 235.224 127.546C235.236 126.136 235.504 124.941 236.017 123.959C236.529 122.978 237.219 122.237 238.066 121.728C238.913 121.219 239.855 120.961 240.871 120.961C241.821 120.969 242.65 121.157 243.358 121.523C244.066 121.888 244.653 122.379 245.118 123.005C245.585 123.629 245.938 124.334 246.171 125.119C246.405 125.895 246.517 126.707 246.517 127.546C246.507 128.732 246.349 129.758 246.04 130.615ZM246.237 103.563V114.109C246.237 114.466 246.246 114.76 246.264 114.983L246.293 115.341H246.181C246.19 115.331 246.069 115.215 245.816 115.001C245.575 114.779 245.166 114.529 244.587 114.243C244.02 113.957 243.237 113.707 242.268 113.485C241.29 113.27 240.078 113.155 238.635 113.145C236.716 113.155 234.954 113.493 233.353 114.171C231.751 114.841 230.37 115.813 229.197 117.071C228.024 118.338 227.121 119.845 226.477 121.612C225.834 123.38 225.508 125.36 225.5 127.546C225.508 129.696 225.817 131.65 226.422 133.417C227.036 135.182 227.912 136.709 229.048 137.984C230.185 139.26 231.555 140.25 233.137 140.947C234.732 141.643 236.501 141.99 238.467 142C239.65 141.99 240.694 141.848 241.606 141.58C242.519 141.312 243.302 140.982 243.964 140.589C244.616 140.189 245.156 139.796 245.575 139.394C245.994 139.002 246.302 138.671 246.497 138.403C246.702 138.137 246.795 137.993 246.795 137.984H246.906L246.879 138.44C246.86 138.734 246.852 139.099 246.852 139.536V141.357H255.907V103.563H246.237Z" fill="white"/>
<path fill-rule="evenodd" clip-rule="evenodd" d="M175.596 124.066C175.764 123.38 176.034 122.737 176.406 122.13C176.779 121.532 177.273 121.05 177.906 120.675C178.531 120.31 179.312 120.113 180.234 120.104C181.008 120.113 181.67 120.302 182.237 120.665C182.806 121.032 183.244 121.514 183.56 122.111C183.877 122.709 184.035 123.362 184.035 124.066H175.596ZM192.875 121.166C192.289 119.542 191.432 118.133 190.296 116.938C189.159 115.741 187.772 114.812 186.123 114.153C184.473 113.493 182.582 113.154 180.458 113.145C178.139 113.154 176.052 113.528 174.207 114.26C172.363 114.993 170.788 116.009 169.494 117.313C168.189 118.623 167.202 120.14 166.513 121.888C165.833 123.629 165.488 125.511 165.479 127.546C165.479 129.017 165.702 130.463 166.14 131.864C166.578 133.265 167.221 134.577 168.087 135.799C168.944 137.021 170.015 138.1 171.282 139.021C172.558 139.948 174.031 140.68 175.708 141.197C177.375 141.724 179.239 141.992 181.297 142C182.833 141.992 184.241 141.848 185.517 141.58C186.792 141.312 187.938 140.982 188.936 140.589C189.933 140.189 190.78 139.796 191.469 139.394C192.159 139.001 192.69 138.671 193.053 138.403C193.408 138.137 193.593 137.993 193.593 137.985L190.016 131.506C190.006 131.526 189.784 131.668 189.354 131.945C188.926 132.221 188.339 132.532 187.604 132.899C186.858 133.265 186.011 133.578 185.06 133.854C184.12 134.13 183.122 134.273 182.079 134.291C181.046 134.291 180.059 134.122 179.136 133.764C178.214 133.409 177.412 132.872 176.752 132.14C176.09 131.409 175.623 130.49 175.372 129.367H193.537C193.537 129.355 193.547 129.25 193.576 129.044L193.649 128.259C193.678 127.946 193.705 127.635 193.724 127.315C193.751 126.992 193.761 126.707 193.761 126.475C193.761 124.548 193.464 122.781 192.875 121.166Z" fill="white"/>
<path fill-rule="evenodd" clip-rule="evenodd" d="M102.771 130.615C102.464 131.481 102.045 132.185 101.513 132.729C100.983 133.283 100.386 133.693 99.7072 133.953C99.0359 134.219 98.3374 134.344 97.6022 134.344C96.4738 134.336 95.4956 134.06 94.6485 133.497C93.7998 132.943 93.1492 132.158 92.6729 131.141C92.1982 130.125 91.9665 128.928 91.9553 127.546C91.9665 126.136 92.235 124.941 92.7481 123.959C93.2595 122.978 93.95 122.237 94.7971 121.728C95.6442 121.219 96.5856 120.961 97.6022 120.961C98.5516 120.969 99.3811 121.157 100.089 121.523C100.797 121.888 101.384 122.379 101.849 123.005C102.316 123.629 102.669 124.334 102.902 125.119C103.136 125.895 103.247 126.707 103.247 127.546C103.238 128.732 103.08 129.758 102.771 130.615ZM102.968 103.563V114.109C102.968 114.466 102.977 114.76 102.995 114.983L103.024 115.341H102.912C102.92 115.331 102.8 115.215 102.547 115.001C102.306 114.779 101.895 114.529 101.318 114.243C100.749 113.957 99.9677 113.707 98.9975 113.485C98.0209 113.27 96.8094 113.155 95.3661 113.145C93.4465 113.155 91.6852 113.493 90.0837 114.171C88.4821 114.841 87.1028 115.813 85.928 117.071C84.7549 118.338 83.8518 119.845 83.2077 121.612C82.5652 123.38 82.2391 125.36 82.2311 127.546C82.2391 129.696 82.5476 131.65 83.1518 133.417C83.7671 135.182 84.643 136.709 85.7794 137.984C86.9158 139.26 88.2856 140.25 89.8695 140.947C91.463 141.643 93.2324 141.99 95.1983 142C96.3811 141.99 97.4248 141.848 98.3374 141.58C99.25 141.312 100.033 140.982 100.695 140.589C101.345 140.189 101.887 139.796 102.306 139.394C102.725 139.002 103.033 138.671 103.228 138.403C103.433 138.137 103.526 137.993 103.526 137.984H103.637L103.61 138.44C103.591 138.734 103.581 139.099 103.581 139.536V141.357H112.638V103.563H102.968Z" fill="white"/>
<path fill-rule="evenodd" clip-rule="evenodd" d="M61.7557 125.833L64.0477 118.391C64.1979 117.901 64.345 117.365 64.4952 116.785C64.6439 116.197 64.7925 115.617 64.9331 115.037C65.0722 114.448 65.1937 113.912 65.3056 113.43C65.4174 112.948 65.5101 112.557 65.5661 112.262L65.6684 111.807H65.7803L65.8826 112.262C65.9481 112.557 66.0312 112.948 66.1431 113.43L66.5155 115.037C66.6561 115.617 66.8048 116.197 66.9534 116.785C67.1037 117.365 67.2523 117.901 67.401 118.391L69.637 125.833H61.7557ZM70.8661 103.082H60.5825L47 141.357H57.0614L59.4637 133.328H71.929L74.3888 141.357H84.4486L70.8661 103.082Z" fill="white"/>
<path fill-rule="evenodd" clip-rule="evenodd" d="M223.384 118.588C223.914 119.917 224.175 121.541 224.184 123.477V141.357H214.515V125.191C214.515 123.914 214.254 122.987 213.723 122.406C213.193 121.827 212.39 121.541 211.329 121.549C210.324 121.549 209.446 121.719 208.692 122.049C207.947 122.379 207.314 122.843 206.811 123.432C206.299 124.031 205.908 124.717 205.628 125.511C205.431 126.046 205.292 126.617 205.2 127.233C205.115 127.841 205.069 128.483 205.069 129.151V141.357H195.399V113.786H204.677V116.196C204.667 116.67 204.65 117.062 204.621 117.393L204.565 117.91H204.677C205.013 117.365 205.443 116.812 205.964 116.258C206.485 115.706 207.119 115.197 207.854 114.725C208.599 114.252 209.466 113.877 210.453 113.592C211.451 113.296 212.577 113.154 213.845 113.145C215.307 113.135 216.668 113.316 217.914 113.671C219.163 114.019 220.254 114.6 221.194 115.403C222.135 116.196 222.861 117.259 223.384 118.588Z" fill="white"/>
<path fill-rule="evenodd" clip-rule="evenodd" d="M161.698 114.617C160.785 114.207 159.714 113.859 158.476 113.583C157.245 113.296 155.848 113.154 154.283 113.145C152.215 113.154 150.334 113.413 148.648 113.93C146.952 114.448 145.461 115.171 144.166 116.089C142.881 117.009 141.791 118.07 140.915 119.283C140.03 120.497 139.368 121.809 138.92 123.21C138.465 124.61 138.241 126.055 138.241 127.546C138.241 129.071 138.474 130.552 138.92 131.97C139.377 133.391 140.039 134.701 140.925 135.915C141.808 137.128 142.899 138.19 144.193 139.1C145.489 140.01 146.979 140.715 148.665 141.224C150.352 141.731 152.225 141.991 154.283 141.999C155.894 141.991 157.347 141.83 158.661 141.527C159.965 141.224 161.111 140.849 162.109 140.394C163.105 139.947 163.934 139.502 164.605 139.047C165.275 138.601 165.778 138.226 166.124 137.922C166.467 137.619 166.635 137.458 166.635 137.448L163.114 130.972C163.105 130.981 162.965 131.096 162.676 131.319C162.396 131.535 162.006 131.811 161.503 132.14C161 132.47 160.413 132.792 159.742 133.123C159.08 133.453 158.362 133.729 157.598 133.943C156.836 134.166 156.043 134.283 155.233 134.291C154.023 134.283 152.96 134.077 152.057 133.675C151.152 133.282 150.398 132.756 149.802 132.087C149.206 131.426 148.76 130.694 148.469 129.883C148.171 129.081 148.023 128.268 148.023 127.439C148.023 126.609 148.163 125.814 148.451 125.029C148.74 124.254 149.169 123.548 149.736 122.923C150.315 122.289 151.031 121.79 151.889 121.425C152.746 121.05 153.751 120.863 154.897 120.855C155.894 120.863 156.807 121.005 157.627 121.273C158.457 121.531 159.165 121.844 159.77 122.192C160.365 122.54 160.832 122.843 161.158 123.111C161.493 123.379 161.661 123.513 161.661 123.531L165.742 117.32C165.742 117.313 165.591 117.161 165.304 116.883C165.005 116.607 164.557 116.258 163.961 115.849C163.365 115.438 162.611 115.029 161.698 114.617Z" fill="white"/>
<path fill-rule="evenodd" clip-rule="evenodd" d="M131.946 125.752C132.897 126.244 133.781 126.823 134.574 127.509C135.375 128.197 136.017 129.017 136.502 129.963C136.986 130.9 137.237 132.006 137.246 133.273C137.246 134.46 136.978 135.575 136.446 136.629C135.925 137.672 135.151 138.601 134.136 139.404C133.129 140.206 131.89 140.84 130.438 141.294C128.975 141.759 127.318 141.99 125.452 142C124.009 141.99 122.686 141.848 121.485 141.58C120.283 141.304 119.221 140.966 118.29 140.562C117.349 140.161 116.566 139.759 115.914 139.359C115.271 138.966 114.777 138.626 114.442 138.35C114.108 138.082 113.94 137.939 113.94 137.931L118.075 131.722C118.084 131.739 118.271 131.881 118.634 132.157C119.006 132.435 119.519 132.748 120.191 133.113C120.851 133.479 121.624 133.791 122.51 134.068C123.395 134.344 124.354 134.487 125.398 134.505C125.892 134.505 126.347 134.46 126.785 134.371C127.214 134.281 127.569 134.147 127.829 133.961C128.099 133.764 128.24 133.523 128.248 133.22C128.24 132.88 127.987 132.569 127.503 132.284C127.019 132.006 126.376 131.722 125.574 131.427C124.783 131.133 123.907 130.812 122.948 130.445C121.989 130.089 121.038 129.66 120.077 129.161C119.128 128.661 118.242 128.073 117.451 127.375C116.65 126.68 116.008 125.859 115.524 124.903C115.039 123.951 114.787 122.826 114.777 121.549C114.787 120.247 115.094 119.078 115.691 118.044C116.296 117.008 117.135 116.126 118.206 115.403C119.286 114.672 120.534 114.118 121.97 113.724C123.403 113.341 124.96 113.145 126.627 113.145C127.968 113.154 129.18 113.261 130.252 113.475C131.333 113.681 132.272 113.948 133.083 114.26C133.893 114.563 134.574 114.876 135.114 115.187C135.654 115.5 136.064 115.768 136.334 115.974C136.604 116.186 136.745 116.295 136.745 116.304L133.447 122.888C133.447 122.879 133.279 122.754 132.944 122.54C132.618 122.317 132.151 122.058 131.547 121.763C130.941 121.47 130.223 121.211 129.394 120.988C128.555 120.764 127.642 120.649 126.627 120.64C126.133 120.64 125.676 120.685 125.24 120.774C124.811 120.863 124.466 121.005 124.196 121.203C123.926 121.398 123.787 121.658 123.776 121.979C123.787 122.272 124.038 122.54 124.522 122.791C125.006 123.049 125.649 123.308 126.45 123.574C127.243 123.842 128.126 124.155 129.077 124.503C130.036 124.851 130.987 125.27 131.946 125.752Z" fill="white"/>
<path fill-rule="evenodd" clip-rule="evenodd" d="M388.634 129.147C388.634 130.163 388.457 131.18 388.104 132.188C387.749 133.197 387.238 134.125 386.585 134.963C385.924 135.802 385.133 136.471 384.201 136.98C383.277 137.489 382.235 137.755 381.089 137.765C379.916 137.755 378.937 137.542 378.145 137.132C377.363 136.721 376.767 136.185 376.375 135.526C375.974 134.874 375.779 134.17 375.779 133.43C375.789 132.456 376.059 131.663 376.58 131.02C377.101 130.387 377.782 129.887 378.639 129.512C379.487 129.147 380.427 128.871 381.442 128.69C382.459 128.521 383.475 128.405 384.48 128.352C385.486 128.307 386.408 128.282 387.238 128.29H388.634V129.147ZM392.697 118.377C391.83 116.798 390.562 115.603 388.905 114.79C387.238 113.978 385.216 113.568 382.821 113.568C381.527 113.578 380.325 113.685 379.235 113.898C378.137 114.112 377.166 114.38 376.3 114.703C375.444 115.014 374.708 115.334 374.112 115.647C373.506 115.968 373.049 116.228 372.733 116.44C372.416 116.656 372.258 116.771 372.258 116.78L374.494 120.581C374.502 120.564 374.708 120.43 375.109 120.171C375.519 119.913 376.076 119.608 376.794 119.269C377.521 118.931 378.349 118.628 379.3 118.368C380.25 118.109 381.274 117.967 382.374 117.958C383.576 117.948 384.648 118.137 385.57 118.511C386.502 118.886 387.238 119.51 387.768 120.385C388.3 121.259 388.569 122.427 388.579 123.9V124.382H387.349C386.539 124.372 385.57 124.4 384.432 124.454C383.306 124.506 382.096 124.623 380.819 124.81C379.543 124.998 378.285 125.293 377.047 125.684C375.806 126.086 374.68 126.621 373.665 127.309C372.648 127.995 371.838 128.861 371.232 129.905C370.628 130.948 370.321 132.215 370.302 133.696C370.311 135.052 370.589 136.24 371.122 137.266C371.652 138.292 372.378 139.156 373.283 139.844C374.195 140.54 375.22 141.057 376.366 141.414C377.502 141.762 378.685 141.941 379.916 141.941C381.265 141.923 382.449 141.745 383.454 141.387C384.461 141.031 385.318 140.585 386.026 140.058C386.724 139.531 387.303 138.997 387.73 138.47C388.169 137.944 388.476 137.499 388.681 137.141C388.876 136.784 388.97 136.605 388.97 136.587H389.082L389.026 137.194C388.997 137.586 388.98 138.105 388.97 138.729V141.298H394V124.168C393.99 121.883 393.562 119.948 392.697 118.377Z" fill="white"/>
<path fill-rule="evenodd" clip-rule="evenodd" d="M352.362 132.135C351.915 133.366 351.301 134.384 350.537 135.159C349.764 135.944 348.897 136.525 347.929 136.89C346.96 137.265 345.944 137.444 344.882 137.444C343.306 137.435 341.919 137.034 340.728 136.239C339.525 135.445 338.595 134.329 337.914 132.884C337.242 131.44 336.899 129.727 336.889 127.754C336.899 126.211 337.113 124.845 337.532 123.641C337.96 122.446 338.548 121.428 339.293 120.598C340.038 119.769 340.904 119.145 341.89 118.717C342.87 118.278 343.922 118.065 345.05 118.065C346.391 118.074 347.564 118.35 348.562 118.894C349.569 119.43 350.397 120.161 351.058 121.072C351.72 121.99 352.223 123.016 352.549 124.158C352.874 125.301 353.042 126.487 353.042 127.701C353.034 129.423 352.81 130.903 352.362 132.135ZM352.874 103.504V116.03C352.885 116.549 352.903 116.984 352.932 117.324L352.987 117.851H352.874C352.874 117.841 352.783 117.691 352.596 117.404C352.409 117.118 352.102 116.761 351.691 116.343C351.272 115.923 350.732 115.495 350.053 115.076C349.372 114.656 348.552 114.3 347.574 114.015C346.597 113.727 345.459 113.577 344.155 113.568C342.274 113.577 340.559 113.908 338.994 114.576C337.439 115.237 336.088 116.191 334.952 117.431C333.806 118.671 332.93 120.161 332.305 121.901C331.682 123.641 331.365 125.595 331.356 127.754C331.365 129.86 331.653 131.786 332.232 133.519C332.799 135.248 333.629 136.739 334.719 137.998C335.799 139.255 337.113 140.227 338.641 140.907C340.179 141.583 341.902 141.931 343.819 141.941C345.218 141.923 346.43 141.754 347.472 141.414C348.506 141.084 349.382 140.664 350.107 140.165C350.825 139.675 351.404 139.175 351.851 138.684C352.287 138.185 352.604 137.765 352.81 137.435C353.005 137.096 353.098 136.927 353.098 136.908H353.21L353.182 137.417C353.163 137.747 353.155 138.185 353.155 138.729V141.298H358.297V103.504H352.874Z" fill="white"/>
<path fill-rule="evenodd" clip-rule="evenodd" d="M308.261 124.654C308.531 123.174 309.054 121.916 309.836 120.89C310.609 119.864 311.578 119.089 312.724 118.553C313.879 118.016 315.145 117.75 316.534 117.75C317.763 117.75 318.872 117.999 319.878 118.508C320.885 119.007 321.695 119.775 322.318 120.791C322.943 121.817 323.287 123.102 323.354 124.654H308.261ZM328.095 121.372C327.572 119.845 326.8 118.498 325.766 117.34C324.732 116.18 323.455 115.278 321.928 114.626C320.41 113.967 318.649 113.636 316.646 113.627C314.624 113.636 312.751 113.967 311.037 114.635C309.324 115.296 307.833 116.25 306.557 117.49C305.28 118.731 304.294 120.222 303.585 121.961C302.878 123.7 302.514 125.653 302.504 127.812C302.514 129.829 302.878 131.704 303.594 133.416C304.312 135.138 305.336 136.636 306.66 137.913C307.993 139.197 309.565 140.198 311.391 140.911C313.227 141.625 315.259 141.992 317.483 142C318.844 141.992 320.084 141.856 321.22 141.597C322.357 141.339 323.372 141.028 324.267 140.643C325.151 140.259 325.915 139.885 326.53 139.502C327.153 139.118 327.628 138.805 327.946 138.546C328.272 138.288 328.44 138.154 328.44 138.146L326.204 134.343C326.204 134.353 326.063 134.46 325.803 134.674C325.533 134.88 325.151 135.148 324.657 135.46C324.155 135.772 323.568 136.075 322.868 136.387C322.179 136.7 321.406 136.967 320.559 137.173C319.712 137.386 318.797 137.493 317.819 137.503C316.553 137.503 315.351 137.316 314.213 136.94C313.079 136.565 312.072 136.003 311.178 135.263C310.283 134.514 309.565 133.585 309.025 132.461C308.485 131.347 308.169 130.045 308.093 128.562H328.72L328.766 128.135C328.793 127.867 328.812 127.555 328.84 127.206C328.868 126.858 328.886 126.564 328.886 126.314C328.886 124.548 328.625 122.907 328.095 121.372Z" fill="white"/>
<path fill-rule="evenodd" clip-rule="evenodd" d="M368.155 141.298H362.734V114.21H368.155V141.298Z" fill="white"/>
<path fill-rule="evenodd" clip-rule="evenodd" d="M368.155 108.803H362.678V103.504H368.155V108.803Z" fill="white"/>
<path fill-rule="evenodd" clip-rule="evenodd" d="M296.949 103.563L300.134 141.356H294.657L292.701 117.534C292.664 116.946 292.637 116.33 292.627 115.696C292.608 115.055 292.608 114.448 292.608 113.885C292.617 113.323 292.627 112.869 292.627 112.511L292.645 111.967H292.534C292.534 111.977 292.469 112.171 292.338 112.548C292.208 112.913 292.04 113.386 291.826 113.966C291.62 114.546 291.388 115.154 291.145 115.785C290.894 116.419 290.651 117 290.408 117.534L282.529 134.559H277.609L269.784 117.534C269.56 117.008 269.319 116.429 269.077 115.785C268.834 115.154 268.601 114.528 268.387 113.93C268.173 113.341 268.005 112.851 267.866 112.458C267.735 112.074 267.669 111.87 267.661 111.86H267.548C267.548 111.87 267.548 112.056 267.557 112.422V113.832C267.557 114.412 267.538 115.028 267.53 115.679C267.513 116.33 267.474 116.946 267.437 117.534L265.537 141.356H260.002L263.189 103.563H269.002L278.057 124.011C278.28 124.547 278.514 125.101 278.736 125.69C278.971 126.269 279.176 126.823 279.37 127.34C279.565 127.857 279.716 128.277 279.836 128.599C279.947 128.92 280.013 129.089 280.013 129.098H280.125C280.125 129.089 280.19 128.92 280.302 128.599C280.422 128.277 280.572 127.857 280.767 127.34C280.962 126.823 281.169 126.269 281.402 125.69C281.624 125.101 281.858 124.547 282.081 124.011L291.136 103.563H296.949Z" fill="white"/>
<path fill-rule="evenodd" clip-rule="evenodd" d="M245.345 71.1139L243.632 66.7944C257.32 53.839 249.409 27.8501 228.526 28.7293L227.565 26.307C252.664 24.0539 266.762 52.3694 245.345 71.1139ZM262.401 36.0599C251.327 18.5488 228.182 18.8201 210.697 24.3603C188.796 31.2999 162.971 53.0986 173.409 78.7939L171.306 82.4784C157.974 49.1605 194.363 22.9848 224.57 18.7563C239.888 16.4218 258.45 19.0467 267.733 32.9403C279.693 50.8407 266.996 74.3372 250.719 84.6565L248.761 79.7226C261.771 69.6299 272.107 51.412 262.401 36.0599ZM239.941 57.4963C245.564 49.7062 241.021 36.9646 231.197 35.4599L234.222 43.0825C235.889 44.0894 236.965 46.3776 236.613 49.111L239.941 57.4963Z" fill="#0E9ED0"/>
<path fill-rule="evenodd" clip-rule="evenodd" d="M209.492 64.1562L212.814 53.3677C213.03 52.6576 213.246 51.8805 213.462 51.0412C213.679 50.1859 213.895 49.3466 214.096 48.5057C214.299 47.652 214.475 46.8765 214.637 46.176C214.8 45.4787 214.934 44.9106 215.015 44.4829L215.164 43.8239H215.325L215.476 44.4829C215.568 44.9106 215.69 45.4787 215.853 46.176L216.393 48.5057C216.596 49.3466 216.812 50.1859 217.028 51.0412C217.243 51.8805 217.459 52.6576 217.677 53.3677L220.916 64.1562H209.492ZM222.699 31.1749H207.789L188.101 86.6601H202.686L206.17 75.0196H224.239L227.804 86.6601H242.388L222.699 31.1749Z" fill="#0E9ED0"/>
</svg>
