<svg width="440" height="160" viewBox="0 0 440 160" fill="none" xmlns="http://www.w3.org/2000/svg">
<path d="M32.9393 91.4709C30.2665 92.7392 27.8466 93.888 25.1915 95.1474C22.7938 88.6834 22.5986 82.2705 23.4858 75.873C25.054 64.5572 30.526 55.3125 39.476 48.2587C57.1809 34.3063 82.7288 36.3574 97.976 52.8289C113.241 69.3182 113.321 94.4223 98.0537 111.087C83.3367 127.15 60.9095 127.727 48.2197 120.764C50.1428 118.551 52.0039 116.375 54.1243 114.264C66.5945 118.334 78.1308 116.626 88.3363 108.264C95.7801 102.166 99.9079 94.1385 100.62 84.5235C102.091 64.688 86.4042 47.8928 66.6587 47.6888C55.3089 47.5713 45.9263 52.1304 38.937 61.0979C31.9367 70.0809 30.2222 80.288 32.9393 91.4709Z" fill="url(#paint0_linear_662_472)"/>
<path d="M94.5347 65.0334C93.3924 66.2486 92.3033 67.5192 91.0967 68.6678C80.6715 78.5779 70.2199 88.4611 59.7838 98.36C54.3073 103.556 48.853 108.771 43.381 113.969C42.496 114.809 41.5665 115.599 40.533 116.526C35.6022 112.953 31.7405 108.567 28.5841 103.139C30.953 101.52 33.4062 100.316 35.9637 98.8855C37.1216 100.447 38.2106 101.917 39.415 103.542C40.2668 102.988 40.97 102.564 41.6399 102.092C58.1889 90.4081 74.7315 78.713 91.2873 67.0403C92.3298 66.3062 93.4833 65.7318 94.5857 65.0843L94.5347 65.0334Z" fill="url(#paint1_linear_662_472)"/>
<path d="M160.909 73.9119C158.566 73.9119 156.453 73.9719 154.343 73.8631C153.9 73.8409 153.385 73.2733 153.077 72.8365C151.253 70.2375 148.685 69.5036 145.755 70.0868C143.053 70.6234 141.691 72.6435 141.015 75.1714C140.429 77.358 140.549 79.5311 141.374 81.6288C143.268 86.4385 149.581 87.3899 152.68 83.2276C153.678 81.8882 154.687 81.4249 156.229 81.5379C157.744 81.6488 159.267 81.6311 161.222 81.682C160.698 83.1678 160.432 84.3496 159.893 85.3896C157.16 90.6716 151.349 93.2995 144.945 92.2261C138.57 91.1595 134.267 86.6026 133.586 80.0589C133.198 76.329 133.617 72.71 135.669 69.4393C137.951 65.8026 141.268 63.818 145.52 63.4254C148.78 63.126 151.965 63.3788 154.902 65.0442C157.919 66.7561 159.842 69.3152 160.827 72.6081C160.915 72.8985 160.871 73.2289 160.909 73.9119Z" fill="#00BE9D"/>
<path d="M214.875 92.1075C212.504 92.1075 210.131 92.174 207.767 92.0543C207.264 92.0299 206.689 91.4001 206.335 90.9146C205.055 89.136 203.855 87.2978 202.615 85.486C202.255 84.9584 201.866 84.4504 201.305 83.6788C200.822 84.3662 200.402 84.8874 200.063 85.4572C199.007 87.2313 197.94 89.0007 196.958 90.817C196.43 91.7948 195.709 92.2007 194.622 92.1718C193.074 92.1297 191.523 92.1808 189.975 92.1474C189.492 92.1363 189.013 91.9855 188.27 91.8502C188.678 91.1052 188.95 90.5509 189.274 90.0275C191.555 86.3553 193.806 82.6633 196.153 79.0332C196.898 77.8824 196.86 76.9887 196.079 75.8866C193.912 72.8376 191.827 69.7287 189.722 66.633C189.15 65.7926 188.629 64.919 187.959 63.8656C188.593 63.7126 188.993 63.5396 189.394 63.5329C191.071 63.4998 192.755 63.5774 194.429 63.4953C195.682 63.4331 196.454 63.9411 197.122 64.9677C198.559 67.1763 200.101 69.3184 201.742 71.6911C202.184 71.1701 202.545 70.8395 202.789 70.4382C203.926 68.5645 205.058 66.6818 206.143 64.7747C206.64 63.8988 207.282 63.4752 208.321 63.5041C210.36 63.5573 212.4 63.5197 214.864 63.5197C214.335 64.5174 214.05 65.1363 213.691 65.7084C211.467 69.2652 209.279 72.8442 206.963 76.339C206.147 77.5719 206.246 78.4632 207.072 79.6275C209.471 82.9892 211.759 86.4263 214.078 89.8435C214.462 90.409 214.787 91.0165 215.137 91.6042C215.051 91.7705 214.963 91.9391 214.875 92.1075Z" fill="#00BE9D"/>
<path d="M165.332 63.615C165.962 63.5817 166.658 63.5197 167.355 63.5173C170.132 63.5064 172.909 63.4819 175.684 63.5263C176.839 63.5462 178.006 63.646 179.144 63.8479C183.959 64.7016 186.832 68.2629 186.696 73.1346C186.565 77.9067 183.371 81.448 178.6 82.0002C177.196 82.1621 175.763 82.0912 174.346 82.1399C173.654 82.1643 172.964 82.2196 171.988 82.2797C171.988 85.5548 171.988 88.6815 171.988 91.9788C169.544 91.9788 167.399 91.9788 165.301 91.9788C164.688 90.2004 164.706 65.3558 165.332 63.615ZM172.108 76.4365C174 76.5474 175.777 76.7936 177.502 76.064C178.815 75.5097 179.479 74.3232 179.421 72.7931C179.359 71.1656 178.558 69.9458 177.101 69.6022C175.475 69.2207 173.818 69.2519 172.106 69.6067C172.108 71.9129 172.108 74.0749 172.108 76.4365Z" fill="#00BE9D"/>
<path d="M238.614 80.6435C241.092 84.4332 243.41 87.9768 245.736 91.5336C243.467 92.7288 241.866 92.3651 240.66 90.4959C238.942 87.8392 237.245 85.1716 235.536 82.5129C234.113 80.2975 233.611 80.1202 230.625 80.9185C230.625 84.4732 230.625 88.1142 230.625 91.9505C229.231 91.9505 228.13 91.9505 226.858 91.9505C226.858 82.5728 226.858 73.3303 226.858 64.0412C227.289 63.9147 227.588 63.7485 227.889 63.7485C231.31 63.744 234.745 63.5843 238.149 63.8194C245.001 64.294 246.992 70.4851 245.388 75.2993C244.647 77.5235 243.087 78.9871 240.908 79.8075C240.253 80.0582 239.593 80.2909 238.614 80.6435ZM230.745 67.1567C230.745 70.7623 230.745 74.0708 230.745 77.5568C233.484 77.7475 236.092 78.0646 238.657 77.2551C240.926 76.539 241.919 74.8692 241.851 72.1528C241.787 69.6292 240.64 67.9152 238.42 67.3873C235.961 66.802 233.462 67.0059 230.745 67.1567Z" fill="white"/>
<path d="M344.32 91.8681C343.753 91.9968 343.45 92.1098 343.138 92.132C340.961 92.2917 340.645 92.0211 340.64 89.8457C340.623 83.3285 340.632 76.8092 340.632 70.292C340.632 68.7442 340.616 67.194 340.65 65.6462C340.665 65.0897 340.806 64.5354 340.885 63.9919C341.357 63.8789 341.664 63.7393 341.972 63.7393C345.265 63.7304 348.56 63.6372 351.846 63.7836C354.517 63.9011 356.895 64.8525 358.456 67.2252C361.609 72.0238 359.591 78.073 354.196 80.0245C353.722 80.1952 353.274 80.4348 352.634 80.7207C355.043 84.4085 357.381 87.9919 359.747 91.613C357.057 92.7018 355.825 92.3492 354.494 90.2759C352.854 87.7258 351.22 85.1712 349.583 82.619C348.09 80.2927 347.642 80.1243 344.492 80.9004C344.437 84.4949 344.379 88.187 344.32 91.8681ZM344.569 77.6007C347.389 77.7294 349.954 78.0443 352.47 77.3191C354.696 76.6782 355.751 75.1372 355.817 72.7068C355.894 69.9725 354.935 68.1721 352.722 67.5111C350.103 66.7307 347.405 66.9457 344.569 67.2562C344.569 70.7222 344.569 74.0307 344.569 77.6007Z" fill="white"/>
<path d="M389.956 83.0646C389.328 86.1224 387.565 88.2934 385.233 90.0075C380.812 93.2606 371.777 93.8105 366.769 88.1803C364.378 85.4927 363.34 82.2974 363.171 78.7915C363.021 75.6449 363.552 72.6047 365.164 69.8439C367.533 65.7926 371.101 63.6105 375.777 63.4752C377.689 63.4199 379.673 63.5618 381.52 64.0296C385.244 64.9722 387.828 67.4246 389.432 70.8972C389.665 71.4028 389.769 71.9661 389.923 72.4784C387.663 73.5759 386.478 73.2789 385.29 71.4338C382.934 67.7684 378.833 66.2228 374.292 67.2827C370.778 68.1031 367.835 71.5315 367.376 75.5274C367.124 77.7048 367.056 79.9046 367.792 82.0446C369.053 85.7034 371.408 88.1359 375.356 88.6481C379.459 89.1804 382.889 87.9741 385.255 84.3951C386.58 82.3927 387.213 82.182 389.956 83.0646Z" fill="white"/>
<path d="M412.9 79.2209C408.193 79.2209 403.657 79.2209 398.935 79.2209C398.416 83.4718 399.039 87.6563 398.569 91.845C398.088 91.9625 397.728 92.1089 397.362 92.1311C395.27 92.2598 394.969 92.0025 394.965 89.9424C394.951 81.9418 394.956 73.9389 394.967 65.9382C394.967 65.3128 395.084 64.6875 395.163 63.8936C396.296 63.8936 397.283 63.8936 398.485 63.8936C398.569 64.6054 398.714 65.2818 398.719 65.956C398.748 68.4727 398.719 70.9897 398.743 73.5064C398.748 74.1939 398.852 74.879 398.924 75.7084C403.627 75.7084 408.159 75.7084 412.862 75.7084C412.939 74.8946 413.056 74.2071 413.061 73.5198C413.087 71.0672 413.061 68.6146 413.078 66.1643C413.094 63.8049 413.431 63.5145 415.831 63.7495C416.078 63.7739 416.32 63.8782 416.762 64C416.837 64.5789 416.986 65.1952 416.986 65.8117C417.002 73.8791 417.006 81.9441 416.99 90.0112C416.986 91.9427 415.469 92.905 413.799 91.9625C413.386 91.7298 413.124 90.9049 413.112 90.3461C413.04 87.4434 413.085 84.5384 413.065 81.6357C413.061 80.8773 412.966 80.1257 412.9 79.2209Z" fill="white"/>
<path d="M337.009 92.1019C335.712 92.1019 334.681 92.244 333.72 92.0444C333.23 91.9423 332.719 91.2971 332.479 90.7782C331.937 89.614 331.496 88.39 331.126 87.1569C330.798 86.0572 330.168 85.5892 329.022 85.6025C325.926 85.6403 322.827 85.6358 319.731 85.607C318.682 85.5982 318.047 85.9839 317.735 87.0217C317.399 88.1305 316.949 89.2037 316.537 90.288C315.846 92.0976 315.674 92.2107 313.706 92.1551C313.321 92.1442 312.931 92.113 312.555 92.0421C312.384 92.0111 312.235 91.8647 311.952 91.694C312.151 91.0332 312.314 90.359 312.558 89.716C315.477 81.9969 318.4 74.2822 321.331 66.5698C322.174 64.3524 323.752 63.5453 325.984 64.3612C326.52 64.5587 326.988 65.3081 327.225 65.909C328.642 69.5079 329.978 73.138 331.347 76.7547C333.035 81.2163 334.73 85.6758 336.41 90.1374C336.588 90.6118 336.71 91.1086 337.009 92.1019ZM329.166 82.416C328.289 78.3824 325.146 70.435 324.106 69.6455C322.574 73.8587 320.89 77.9854 319.564 82.416C322.897 82.416 325.957 82.416 329.166 82.416Z" fill="white"/>
<path d="M288.084 70.5063C286.681 70.5063 285.444 70.5063 284.163 70.5063C283.989 70.2026 283.83 69.9297 283.677 69.6504C282.167 66.9029 279.649 65.854 276.657 66.73C273.791 67.5681 272.73 71.2847 274.874 73.4423C275.746 74.3182 276.978 74.908 278.146 75.4025C280.099 76.2319 282.185 76.7663 284.12 77.6333C288.17 79.4472 289.684 83.0107 288.344 87.2041C287.786 88.947 286.689 90.2531 285.128 91.1667C281.353 93.3753 275.493 92.7167 272.271 89.7409C270.691 88.2817 269.966 86.6651 269.995 84.4788C271.174 84.4788 272.357 84.4788 273.586 84.4788C273.721 84.7049 273.877 84.9089 273.97 85.1395C275.277 88.3749 277.595 89.6988 280.992 89.1399C284.3 88.5965 285.873 84.6583 283.639 82.1593C282.741 81.1525 281.399 80.4473 280.135 79.884C278.196 79.0215 276.103 78.5048 274.156 77.6555C270.128 75.8949 268.632 72.2116 270.103 68.0671C270.801 66.1002 272.209 64.814 274.083 64.1C277.091 62.9558 280.192 62.9513 283.166 64.1267C285.903 65.2065 287.659 67.2311 288.084 70.5063Z" fill="white"/>
<path d="M265.918 63.8918C265.918 64.8498 265.918 65.6414 265.918 66.7457C261.978 66.7457 258.145 66.7457 254.168 66.7457C254.168 69.9833 254.168 72.908 254.168 76.1389C257.716 76.2056 261.144 76.2697 264.634 76.334C264.634 77.445 264.634 78.2434 264.634 79.2944C261.095 79.2944 257.707 79.2944 254.177 79.2944C253.96 82.6029 253.854 85.6543 254.252 88.9715C258.168 88.9715 261.947 88.9715 265.904 88.9715C265.974 90.027 266.026 90.8254 266.099 91.9541C260.765 92.351 255.612 92.136 250.292 92.096C250.204 91.1446 250.091 90.4595 250.089 89.7742C250.077 81.9022 250.073 74.0301 250.086 66.1581C250.089 63.8296 250.204 63.7144 252.461 63.7055C256.204 63.69 259.949 63.6922 263.691 63.7078C264.385 63.7121 265.073 63.8185 265.918 63.8918Z" fill="white"/>
<path d="M297.549 76.1473C301.095 76.2093 304.476 76.2693 307.99 76.3313C307.99 77.3891 307.99 78.1873 307.99 79.243C304.519 79.243 301.133 79.243 297.567 79.243C297.239 82.5403 297.305 85.5849 297.531 88.9334C301.434 88.9334 305.201 88.9334 309.213 88.9334C309.269 90.0621 309.312 90.9003 309.364 92.0068C304.013 92.2662 298.911 92.2152 293.643 92.0423C293.56 91.1308 293.447 90.4457 293.445 89.7604C293.431 81.8907 293.429 74.0185 293.44 66.1486C293.443 63.8225 293.551 63.7139 295.815 63.7049C299.621 63.6895 303.429 63.6829 307.235 63.7094C309.375 63.725 309.588 64.0443 309.134 66.53C305.389 67.0666 301.526 66.4858 297.546 66.8805C297.549 69.9229 297.549 72.8455 297.549 76.1473Z" fill="white"/>
<path d="M94.5866 65.0827L94.6086 64.9983L94.5347 65.0334L94.5866 65.0827Z" fill="white"/>
<defs>
<linearGradient id="paint0_linear_662_472" x1="51.433" y1="169.72" x2="603.227" y2="-154.939" gradientUnits="userSpaceOnUse">
<stop stop-color="#00BE9D"/>
<stop offset="0.790206" stop-color="#00FF87"/>
</linearGradient>
<linearGradient id="paint1_linear_662_472" x1="51.433" y1="169.72" x2="603.228" y2="-154.939" gradientUnits="userSpaceOnUse">
<stop stop-color="#00BE9D"/>
<stop offset="0.790206" stop-color="#00FF87"/>
</linearGradient>
</defs>
</svg>
