<svg width="440" height="160" viewBox="0 0 440 160" fill="none" xmlns="http://www.w3.org/2000/svg">
<mask id="mask0_714_2" style="mask-type:luminance" maskUnits="userSpaceOnUse" x="18" y="30" width="403" height="100">
<path d="M18 30H420.641V130H18V30Z" fill="white"/>
</mask>
<g mask="url(#mask0_714_2)">
<path d="M66.6845 30C86.8296 30 103.139 46.535 103.139 66.955C103.139 87.375 86.7972 103.91 66.687 103.91H56.6793C74.3804 103.91 94.6154 83.835 87.478 60.785C87.4157 60.5025 87.3234 60.22 87.2336 59.9375C87.08 59.4243 86.8934 58.9216 86.675 58.4325C83.3682 50.575 75.6772 44.9975 66.7194 44.9975H36.5341C34.6214 44.9975 33.0428 46.4725 32.8607 48.3825C32.9505 36.545 38.6639 30 50.3724 30H66.6845Z" fill="#266BD7"/>
<path d="M87.473 60.7825C94.6079 83.8325 74.4054 103.908 56.6743 103.908H53.4946L32.7959 125.553L30.6013 127.808C29.9194 128.501 29.1069 129.052 28.2109 129.429C27.3149 129.805 26.3532 129.999 25.3817 130C21.3018 130 18 126.65 18 122.515V109.423C18 112.773 21.4889 115.843 26.2795 110.833L35.9805 100.685L47.1927 88.9425H66.6546C67.0586 88.9425 67.4576 88.91 67.8267 88.91C79.2284 88.285 88.311 78.7025 88.311 66.985C88.367 64.8867 88.0849 62.7932 87.4755 60.785L87.473 60.7825Z" fill="#266BD7"/>
<path d="M32.8308 30H50.3774C38.6688 30 32.958 36.545 32.8607 48.3825C32.8308 48.5075 32.8308 48.6325 32.8308 48.7575V99.275C32.8308 100.34 33.6637 101.185 34.7111 101.185C35.1956 101.181 35.66 100.99 36.0079 100.652L26.3144 110.8C21.5263 115.81 18.0349 112.74 18.0349 109.39V37.5175C18.0324 33.3825 21.3392 30.0325 25.4166 30.0325H32.8308V30Z" fill="#266BD7"/>
<path d="M66.6845 30C86.8296 30 103.139 46.535 103.139 66.955C103.139 87.375 86.7972 103.91 66.687 103.91H56.6793C74.3804 103.91 94.6154 83.835 87.478 60.785C87.4157 60.5025 87.3234 60.22 87.2336 59.9375C87.08 59.4243 86.8934 58.9216 86.675 58.4325C83.3682 50.575 75.6772 44.9975 66.7194 44.9975H36.5341C34.6214 44.9975 33.0428 46.4725 32.8607 48.3825C32.9505 36.545 38.6639 30 50.3724 30H66.6845Z" fill="url(#paint0_linear_714_2)"/>
<path d="M66.6845 30C86.8296 30 103.139 46.535 103.139 66.955C103.139 87.375 86.7972 103.91 66.687 103.91H56.6793C74.3804 103.91 94.6154 83.835 87.478 60.785C87.4157 60.5025 87.3234 60.22 87.2336 59.9375C87.08 59.4243 86.8934 58.9216 86.675 58.4325C83.3682 50.575 75.6772 44.9975 66.7194 44.9975H36.5341C34.6214 44.9975 33.0428 46.4725 32.8607 48.3825C32.9505 36.545 38.6639 30 50.3724 30H66.6845Z" fill="url(#paint1_linear_714_2)"/>
<path d="M66.6845 30C86.8296 30 103.139 46.535 103.139 66.955C103.139 87.375 86.7972 103.91 66.687 103.91H56.6793C74.3804 103.91 94.6154 83.835 87.478 60.785C87.4157 60.5025 87.3234 60.22 87.2336 59.9375C87.08 59.4243 86.8934 58.9216 86.675 58.4325C83.3682 50.575 75.6772 44.9975 66.7194 44.9975H36.5341C34.6214 44.9975 33.0428 46.4725 32.8607 48.3825C32.9505 36.545 38.6639 30 50.3724 30H66.6845Z" fill="url(#paint2_linear_714_2)"/>
<path d="M66.6845 30C86.8296 30 103.139 46.535 103.139 66.955C103.139 87.375 86.7972 103.91 66.687 103.91H56.6793C74.3804 103.91 94.6154 83.835 87.478 60.785C87.4157 60.5025 87.3234 60.22 87.2336 59.9375C87.08 59.4243 86.8934 58.9216 86.675 58.4325C83.3682 50.575 75.6772 44.9975 66.7194 44.9975H36.5341C34.6214 44.9975 33.0428 46.4725 32.8607 48.3825C32.9505 36.545 38.6639 30 50.3724 30H66.6845Z" fill="url(#paint3_linear_714_2)"/>
<path d="M66.6845 30C86.8296 30 103.139 46.535 103.139 66.955C103.139 87.375 86.7972 103.91 66.687 103.91H56.6793C74.3804 103.91 94.6154 83.835 87.478 60.785C87.4157 60.5025 87.3234 60.22 87.2336 59.9375C87.08 59.4243 86.8934 58.9216 86.675 58.4325C83.3682 50.575 75.6772 44.9975 66.7194 44.9975H36.5341C34.6214 44.9975 33.0428 46.4725 32.8607 48.3825C32.9505 36.545 38.6639 30 50.3724 30H66.6845Z" fill="url(#paint4_linear_714_2)"/>
<path d="M87.473 60.7825C94.6079 83.8325 74.4054 103.908 56.6743 103.908H53.4946L32.7959 125.553L30.6013 127.808C29.9194 128.501 29.1069 129.052 28.2109 129.429C27.3149 129.805 26.3532 129.999 25.3817 130C21.3018 130 18 126.65 18 122.515V109.423C18 112.773 21.4889 115.843 26.2795 110.833L35.9805 100.685L47.1927 88.9425H66.6546C67.0586 88.9425 67.4576 88.91 67.8267 88.91C79.2284 88.285 88.311 78.7025 88.311 66.985C88.367 64.8867 88.0849 62.7932 87.4755 60.785L87.473 60.7825Z" fill="url(#paint5_linear_714_2)"/>
<path d="M87.473 60.7825C94.6079 83.8325 74.4054 103.908 56.6743 103.908H53.4946L32.7959 125.553L30.6013 127.808C29.9194 128.501 29.1069 129.052 28.2109 129.429C27.3149 129.805 26.3532 129.999 25.3817 130C21.3018 130 18 126.65 18 122.515V109.423C18 112.773 21.4889 115.843 26.2795 110.833L35.9805 100.685L47.1927 88.9425H66.6546C67.0586 88.9425 67.4576 88.91 67.8267 88.91C79.2284 88.285 88.311 78.7025 88.311 66.985C88.367 64.8867 88.0849 62.7932 87.4755 60.785L87.473 60.7825Z" fill="url(#paint6_linear_714_2)"/>
<path d="M87.473 60.7825C94.6079 83.8325 74.4054 103.908 56.6743 103.908H53.4946L32.7959 125.553L30.6013 127.808C29.9194 128.501 29.1069 129.052 28.2109 129.429C27.3149 129.805 26.3532 129.999 25.3817 130C21.3018 130 18 126.65 18 122.515V109.423C18 112.773 21.4889 115.843 26.2795 110.833L35.9805 100.685L47.1927 88.9425H66.6546C67.0586 88.9425 67.4576 88.91 67.8267 88.91C79.2284 88.285 88.311 78.7025 88.311 66.985C88.367 64.8867 88.0849 62.7932 87.4755 60.785L87.473 60.7825Z" fill="url(#paint7_linear_714_2)"/>
<path d="M87.473 60.7825C94.6079 83.8325 74.4054 103.908 56.6743 103.908H53.4946L32.7959 125.553L30.6013 127.808C29.9194 128.501 29.1069 129.052 28.2109 129.429C27.3149 129.805 26.3532 129.999 25.3817 130C21.3018 130 18 126.65 18 122.515V109.423C18 112.773 21.4889 115.843 26.2795 110.833L35.9805 100.685L47.1927 88.9425H66.6546C67.0586 88.9425 67.4576 88.91 67.8267 88.91C79.2284 88.285 88.311 78.7025 88.311 66.985C88.367 64.8867 88.0849 62.7932 87.4755 60.785L87.473 60.7825Z" fill="url(#paint8_linear_714_2)"/>
<path d="M32.8308 30H50.3774C38.6688 30 32.958 36.545 32.8607 48.3825C32.8308 48.5075 32.8308 48.6325 32.8308 48.7575V99.275C32.8308 100.34 33.6637 101.185 34.7111 101.185C35.1956 101.181 35.66 100.99 36.0079 100.652L26.3144 110.8C21.5263 115.81 18.0349 112.74 18.0349 109.39V37.5175C18.0324 33.3825 21.3392 30.0325 25.4166 30.0325H32.8308V30Z" fill="url(#paint9_linear_714_2)"/>
<path d="M32.8308 30H50.3774C38.6688 30 32.958 36.545 32.8607 48.3825C32.8308 48.5075 32.8308 48.6325 32.8308 48.7575V99.275C32.8308 100.34 33.6637 101.185 34.7111 101.185C35.1956 101.181 35.66 100.99 36.0079 100.652L26.3144 110.8C21.5263 115.81 18.0349 112.74 18.0349 109.39V37.5175C18.0324 33.3825 21.3392 30.0325 25.4166 30.0325H32.8308V30Z" fill="url(#paint10_linear_714_2)"/>
<path d="M32.8308 30H50.3774C38.6688 30 32.958 36.545 32.8607 48.3825C32.8308 48.5075 32.8308 48.6325 32.8308 48.7575V99.275C32.8308 100.34 33.6637 101.185 34.7111 101.185C35.1956 101.181 35.66 100.99 36.0079 100.652L26.3144 110.8C21.5263 115.81 18.0349 112.74 18.0349 109.39V37.5175C18.0324 33.3825 21.3392 30.0325 25.4166 30.0325H32.8308V30Z" fill="url(#paint11_linear_714_2)"/>
<path d="M32.8308 30H50.3774C38.6688 30 32.958 36.545 32.8607 48.3825C32.8308 48.5075 32.8308 48.6325 32.8308 48.7575V99.275C32.8308 100.34 33.6637 101.185 34.7111 101.185C35.1956 101.181 35.66 100.99 36.0079 100.652L26.3144 110.8C21.5263 115.81 18.0349 112.74 18.0349 109.39V37.5175C18.0324 33.3825 21.3392 30.0325 25.4166 30.0325H32.8308V30Z" fill="url(#paint12_linear_714_2)"/>
<path d="M32.8308 30H50.3774C38.6688 30 32.958 36.545 32.8607 48.3825C32.8308 48.5075 32.8308 48.6325 32.8308 48.7575V99.275C32.8308 100.34 33.6637 101.185 34.7111 101.185C35.1956 101.181 35.66 100.99 36.0079 100.652L26.3144 110.8C21.5263 115.81 18.0349 112.74 18.0349 109.39V37.5175C18.0324 33.3825 21.3392 30.0325 25.4166 30.0325H32.8308V30Z" fill="url(#paint13_linear_714_2)"/>
<path d="M32.8308 30H50.3774C38.6688 30 32.958 36.545 32.8607 48.3825C32.8308 48.5075 32.8308 48.6325 32.8308 48.7575V99.275C32.8308 100.34 33.6637 101.185 34.7111 101.185C35.1956 101.181 35.66 100.99 36.0079 100.652L26.3144 110.8C21.5263 115.81 18.0349 112.74 18.0349 109.39V37.5175C18.0324 33.3825 21.3392 30.0325 25.4166 30.0325H32.8308V30Z" fill="url(#paint14_linear_714_2)"/>
<path d="M32.8308 30H50.3774C38.6688 30 32.958 36.545 32.8607 48.3825C32.8308 48.5075 32.8308 48.6325 32.8308 48.7575V99.275C32.8308 100.34 33.6637 101.185 34.7111 101.185C35.1956 101.181 35.66 100.99 36.0079 100.652L26.3144 110.8C21.5263 115.81 18.0349 112.74 18.0349 109.39V37.5175C18.0324 33.3825 21.3392 30.0325 25.4166 30.0325H32.8308V30Z" fill="url(#paint15_linear_714_2)"/>
<path d="M32.8308 30H50.3774C38.6688 30 32.958 36.545 32.8607 48.3825C32.8308 48.5075 32.8308 48.6325 32.8308 48.7575V99.275C32.8308 100.34 33.6637 101.185 34.7111 101.185C35.1956 101.181 35.66 100.99 36.0079 100.652L26.3144 110.8C21.5263 115.81 18.0349 112.74 18.0349 109.39V37.5175C18.0324 33.3825 21.3392 30.0325 25.4166 30.0325H32.8308V30Z" fill="url(#paint16_linear_714_2)"/>
<path d="M32.8308 30H50.3774C38.6688 30 32.958 36.545 32.8607 48.3825C32.8308 48.5075 32.8308 48.6325 32.8308 48.7575V99.275C32.8308 100.34 33.6637 101.185 34.7111 101.185C35.1956 101.181 35.66 100.99 36.0079 100.652L26.3144 110.8C21.5263 115.81 18.0349 112.74 18.0349 109.39V37.5175C18.0324 33.3825 21.3392 30.0325 25.4166 30.0325H32.8308V30Z" fill="url(#paint17_linear_714_2)"/>
<path d="M32.8308 30H50.3774C38.6688 30 32.958 36.545 32.8607 48.3825C32.8308 48.5075 32.8308 48.6325 32.8308 48.7575V99.275C32.8308 100.34 33.6637 101.185 34.7111 101.185C35.1956 101.181 35.66 100.99 36.0079 100.652L26.3144 110.8C21.5263 115.81 18.0349 112.74 18.0349 109.39V37.5175C18.0324 33.3825 21.3392 30.0325 25.4166 30.0325H32.8308V30Z" fill="url(#paint18_linear_714_2)"/>
<path d="M50.3699 30C41.1677 32.0375 39.0379 39.145 39.0679 45.0025H36.5366C34.6239 45.0025 33.0453 46.4775 32.8632 48.3875C32.9505 36.545 38.6364 30 50.3724 30H50.3699Z" fill="url(#paint19_linear_714_2)"/>
<path d="M36.0104 100.653L26.3094 110.8C22.8804 114.37 20.1322 113.805 18.8654 111.99C19.5786 112.87 21.2744 113.465 22.7582 112.428C25.8481 110.3 29.6761 102.938 32.8607 95.5475V99.245C32.8607 100.308 33.6961 101.155 34.7436 101.155C34.9785 101.171 35.2139 101.134 35.4329 101.047C35.652 100.961 35.8492 100.824 36.0104 100.653Z" fill="url(#paint20_linear_714_2)"/>
<path d="M50.3699 30C41.1677 32.0375 39.0379 39.145 39.0679 45.0025H36.5366C34.6239 45.0025 33.0453 46.4775 32.8632 48.3875C32.9505 36.545 38.6364 30 50.3724 30H50.3699Z" fill="url(#paint21_linear_714_2)"/>
<path d="M56.7042 103.91C58.6494 103.91 76.7845 100.84 80.7996 83.6175C83.1844 81.5492 85.0974 78.9907 86.4085 76.1156C87.7196 73.2405 88.3982 70.1163 88.3982 66.955C88.3982 64.8275 88.089 62.725 87.5005 60.7825C94.6029 83.8325 74.4029 103.908 56.7017 103.908L56.7042 103.91Z" fill="url(#paint22_linear_714_2)"/>
<path d="M36.0104 100.653L26.3094 110.8C22.8804 114.37 20.1322 113.805 18.8654 111.99C19.5786 112.87 21.2744 113.465 22.7582 112.428C25.8481 110.3 29.6761 102.938 32.8607 95.5475V99.245C32.8607 100.308 33.6961 101.155 34.7436 101.155C34.9785 101.171 35.2139 101.134 35.4329 101.047C35.652 100.961 35.8492 100.824 36.0104 100.653Z" fill="url(#paint23_linear_714_2)"/>
<path d="M50.3699 30C41.1677 32.0375 39.0379 39.145 39.0679 45.0025H36.5366C34.6239 45.0025 33.0453 46.4775 32.8632 48.3875C32.9505 36.545 38.6364 30 50.3724 30H50.3699Z" fill="url(#paint24_linear_714_2)"/>
<path d="M36.0104 100.653L26.3094 110.8C22.8804 114.37 20.1322 113.805 18.8654 111.99C19.5786 112.87 21.2744 113.465 22.7582 112.428C25.8481 110.3 29.6761 102.938 32.8607 95.5475V99.245C32.8607 100.308 33.6961 101.155 34.7436 101.155C34.9785 101.171 35.2139 101.134 35.4329 101.047C35.652 100.961 35.8492 100.824 36.0104 100.653Z" fill="url(#paint25_linear_714_2)"/>
<path d="M66.6845 30C86.8296 30 103.139 46.535 103.139 66.955C103.139 87.375 86.7972 103.91 66.687 103.91H56.6793C74.3804 103.91 94.6154 83.835 87.478 60.785C87.4157 60.5025 87.3234 60.22 87.2336 59.9375C87.08 59.4243 86.8934 58.9216 86.675 58.4325C83.3682 50.575 75.6772 44.9975 66.7194 44.9975H36.5341C34.6214 44.9975 33.0428 46.4725 32.8607 48.3825C32.9505 36.545 38.6639 30 50.3724 30H66.6845Z" fill="url(#paint26_linear_714_2)"/>
<path d="M66.6845 30C86.8296 30 103.139 46.535 103.139 66.955C103.139 87.375 86.7972 103.91 66.687 103.91H56.6793C74.3804 103.91 94.6154 83.835 87.478 60.785C87.4157 60.5025 87.3234 60.22 87.2336 59.9375C87.08 59.4243 86.8934 58.9216 86.675 58.4325C83.3682 50.575 75.6772 44.9975 66.7194 44.9975H36.5341C34.6214 44.9975 33.0428 46.4725 32.8607 48.3825C32.9505 36.545 38.6639 30 50.3724 30H66.6845Z" fill="url(#paint27_linear_714_2)"/>
<path d="M87.473 60.7825C94.6079 83.8325 74.4054 103.908 56.6743 103.908H53.4946L32.7959 125.553L30.6013 127.808C29.9194 128.501 29.1069 129.052 28.2109 129.429C27.3149 129.805 26.3532 129.999 25.3817 130C21.3018 130 18 126.65 18 122.515V109.423C18 112.773 21.4889 115.843 26.2795 110.833L35.9805 100.685L47.1927 88.9425H66.6546C67.0586 88.9425 67.4576 88.91 67.8267 88.91C79.2284 88.285 88.311 78.7025 88.311 66.985C88.367 64.8867 88.0849 62.7932 87.4755 60.785L87.473 60.7825Z" fill="url(#paint28_linear_714_2)"/>
<path d="M87.473 60.7825C94.6079 83.8325 74.4054 103.908 56.6743 103.908H53.4946L32.7959 125.553L30.6013 127.808C29.9194 128.501 29.1069 129.052 28.2109 129.429C27.3149 129.805 26.3532 129.999 25.3817 130C21.3018 130 18 126.65 18 122.515V109.423C18 112.773 21.4889 115.843 26.2795 110.833L35.9805 100.685L47.1927 88.9425H66.6546C67.0586 88.9425 67.4576 88.91 67.8267 88.91C79.2284 88.285 88.311 78.7025 88.311 66.985C88.367 64.8867 88.0849 62.7932 87.4755 60.785L87.473 60.7825Z" fill="url(#paint29_linear_714_2)"/>
<path d="M87.473 60.7825C94.6079 83.8325 74.4054 103.908 56.6743 103.908H53.4946L32.7959 125.553L30.6013 127.808C29.9194 128.501 29.1069 129.052 28.2109 129.429C27.3149 129.805 26.3532 129.999 25.3817 130C21.3018 130 18 126.65 18 122.515V109.423C18 112.773 21.4889 115.843 26.2795 110.833L35.9805 100.685L47.1927 88.9425H66.6546C67.0586 88.9425 67.4576 88.91 67.8267 88.91C79.2284 88.285 88.311 78.7025 88.311 66.985C88.367 64.8867 88.0849 62.7932 87.4755 60.785L87.473 60.7825Z" fill="url(#paint30_linear_714_2)"/>
<path d="M32.8308 30H50.3774C38.6688 30 32.958 36.545 32.8607 48.3825C32.8308 48.5075 32.8308 48.6325 32.8308 48.7575V99.275C32.8308 100.34 33.6637 101.185 34.7111 101.185C35.1956 101.181 35.66 100.99 36.0079 100.652L26.3144 110.8C21.5263 115.81 18.0349 112.74 18.0349 109.39V37.5175C18.0324 33.3825 21.3392 30.0325 25.4166 30.0325H32.8308V30Z" fill="url(#paint31_linear_714_2)"/>
<path d="M32.8308 30H50.3774C38.6688 30 32.958 36.545 32.8607 48.3825C32.8308 48.5075 32.8308 48.6325 32.8308 48.7575V99.275C32.8308 100.34 33.6637 101.185 34.7111 101.185C35.1956 101.181 35.66 100.99 36.0079 100.652L26.3144 110.8C21.5263 115.81 18.0349 112.74 18.0349 109.39V37.5175C18.0324 33.3825 21.3392 30.0325 25.4166 30.0325H32.8308V30Z" fill="url(#paint32_linear_714_2)"/>
<path d="M56.7042 103.91C58.6494 103.91 76.7845 100.84 80.7996 83.6175C83.1844 81.5492 85.0974 78.9907 86.4085 76.1156C87.7196 73.2405 88.3982 70.1163 88.3982 66.955C88.3982 64.8275 88.089 62.725 87.5005 60.7825C94.6029 83.8325 74.4029 103.908 56.7017 103.908L56.7042 103.91Z" fill="url(#paint33_linear_714_2)"/>
<path d="M56.7042 103.91H53.5246C53.5246 103.91 65.48 101.34 69.9888 88.6575C80.3681 87.06 88.3683 77.915 88.3683 66.955C88.3723 64.8649 88.0715 62.7854 87.4755 60.7825C94.6129 83.8325 74.4104 103.908 56.7092 103.908L56.7042 103.91Z" fill="url(#paint34_linear_714_2)"/>
<path d="M47.7788 45.0025H36.5316C34.6189 45.0025 33.0403 46.4775 32.8582 48.3875C32.953 36.545 38.6639 30 50.3749 30H53.4622C49.0756 34.1975 47.876 40.055 47.7788 45.0025Z" fill="url(#paint35_linear_714_2)"/>
<path d="M18.0324 109.423V100.623C23.4066 98.7425 29.3045 95.3925 32.8308 89.5675V99.3075C32.8308 100.373 33.6637 101.218 34.7111 101.218C35.1956 101.214 35.66 101.023 36.0079 100.685L26.3119 110.833C21.5213 115.843 18.0324 112.743 18.0324 109.423Z" fill="url(#paint36_linear_714_2)"/>
<path d="M123.314 91.3V59.655H136.699C138.15 59.655 139.492 59.95 140.721 60.5475C141.932 61.127 143.014 61.9449 143.903 62.9525C144.791 63.9625 145.482 65.09 145.971 66.34C146.462 67.59 146.706 68.865 146.706 70.175C146.706 71.93 146.307 73.6125 145.504 75.2325C144.732 76.8214 143.558 78.1804 142.1 79.175C140.636 80.185 138.921 80.69 136.966 80.69H129.454V91.295H123.319L123.314 91.3ZM129.449 75.3H136.562C137.335 75.3 138.013 75.09 138.606 74.675C139.202 74.2625 139.669 73.6575 140.01 72.8725C140.364 72.0174 140.539 71.0982 140.522 70.1725C140.522 69.0725 140.322 68.1475 139.923 67.3925C139.567 66.6855 139.03 66.0859 138.367 65.655C137.749 65.2603 137.03 65.0521 136.297 65.055H129.454V75.305L129.449 75.3ZM164.35 73.1125C162.512 73.145 160.884 73.49 159.46 74.1575C158.033 74.8275 157.001 75.815 156.348 77.1225V91.295H150.437V68.165H155.901V72.935C156.732 71.33 157.789 70.07 159.083 69.1475C160.37 68.2275 161.727 67.7175 163.151 67.6325C163.447 67.665 163.687 67.6675 163.864 67.6575C164.03 67.6414 164.197 67.6636 164.353 67.7225V73.1175L164.35 73.1125ZM167.637 64.645V58.76H173.547V64.645H167.637ZM167.637 91.295V67.9425H173.547V91.2925L167.637 91.295ZM215.162 91.3H209.202V78.3825C209.202 76.5375 208.885 75.19 208.244 74.34C207.611 73.49 206.725 73.065 205.601 73.065C204.416 73.065 203.306 73.515 202.266 74.4075C201.214 75.3225 200.443 76.5192 200.044 77.8575V91.295H194.042V78.38C194.042 76.53 193.728 75.1875 193.107 74.335C192.483 73.485 191.61 73.0625 190.486 73.0625C189.361 73.0625 188.216 73.5 187.151 74.3675C186.068 75.2595 185.278 76.4571 184.882 77.805V91.29H178.972V68.16H184.351V72.475C185.203 71.0135 186.442 69.8163 187.929 69.015C189.426 68.205 191.124 67.8 193.022 67.8C194.917 67.8 196.451 68.27 197.536 69.21C198.615 70.1525 199.304 71.31 199.605 72.69C200.553 71.1025 201.758 69.8925 203.229 69.055C204.693 68.22 206.364 67.8 208.232 67.8C209.656 67.8 210.818 68.06 211.72 68.575C212.623 69.0875 213.327 69.78 213.83 70.6425C214.334 71.5075 214.683 72.485 214.873 73.5725C215.065 74.6575 215.164 75.7475 215.164 76.8325V91.285L215.162 91.3ZM231.167 91.745C229.297 91.745 227.611 91.425 226.1 90.7975C224.646 90.2053 223.329 89.3204 222.229 88.1975C221.174 87.1149 220.344 85.8336 219.786 84.4275C219.216 82.9825 218.929 81.4412 218.94 79.8875C218.94 77.7125 219.434 75.71 220.429 73.8725C221.411 72.0461 222.87 70.5223 224.651 69.465C226.476 68.365 228.664 67.81 231.21 67.81C233.761 67.81 235.893 68.36 237.704 69.465C239.459 70.5146 240.901 72.0167 241.881 73.815C242.861 75.61 243.347 77.565 243.347 79.685C243.347 80.065 243.335 80.425 243.302 80.7675C243.27 81.1025 243.242 81.3925 243.21 81.625H225.252C225.342 82.845 225.673 83.885 226.255 84.74C226.828 85.595 227.574 86.26 228.474 86.7225C229.379 87.1875 230.337 87.42 231.342 87.42C232.559 87.42 233.694 87.1275 234.746 86.55C235.798 85.975 236.517 85.19 236.901 84.21L241.968 85.635C241.432 86.825 240.646 87.88 239.614 88.8025C238.574 89.7275 237.345 90.445 235.923 90.9625C234.396 91.4999 232.786 91.7648 231.167 91.745ZM225.075 77.8825H237.255C237.164 76.808 236.821 75.7704 236.252 74.855C235.717 74.0126 234.975 73.3221 234.098 72.85C233.181 72.3621 232.156 72.1144 231.117 72.13C230.02 72.13 229.08 72.37 228.205 72.85C227.333 73.3228 226.599 74.0135 226.072 74.855C225.503 75.7698 225.159 76.8077 225.07 77.8825H225.075ZM258.288 91.3V59.655H264.42V91.3H258.288ZM292.074 91.3H286.116V78.3825C286.116 76.5375 285.8 75.19 285.159 74.34C284.52 73.49 283.613 73.065 282.423 73.065C281.625 73.065 280.819 73.2725 280.001 73.6775C279.176 74.0905 278.437 74.6582 277.824 75.35C277.179 76.0697 276.674 76.9041 276.336 77.81V91.295H270.425V68.165H275.804V72.48C276.4 71.48 277.154 70.6425 278.074 69.97C279.032 69.2711 280.099 68.7348 281.231 68.3825C282.468 67.9917 283.759 67.7977 285.056 67.8075C286.508 67.8075 287.7 68.07 288.635 68.5825C289.57 69.0975 290.281 69.7925 290.767 70.675C291.256 71.5575 291.598 72.535 291.787 73.605C291.977 74.6775 292.077 75.755 292.077 76.8425V91.2925L292.074 91.3ZM305.855 91.745C303.909 91.7515 301.977 91.4191 300.144 90.7625C298.399 90.1563 296.812 89.1663 295.498 87.865L297.678 83.985C299.037 85.115 300.388 85.945 301.723 86.485C303.057 87.02 304.359 87.285 305.633 87.285C306.79 87.285 307.715 87.085 308.411 86.685C308.737 86.5128 309.008 86.2518 309.192 85.932C309.377 85.6122 309.467 85.2466 309.454 84.8775C309.454 84.29 309.259 83.845 308.877 83.535C308.491 83.2275 307.937 82.9625 307.212 82.745C306.333 82.48 305.452 82.2234 304.568 81.975C303.102 81.5424 301.667 81.006 300.276 80.37C299.134 79.83 298.266 79.1525 297.678 78.345C297.082 77.5425 296.787 76.505 296.787 75.245C296.787 73.72 297.181 72.4075 297.967 71.3075C298.753 70.2075 299.85 69.3475 301.256 68.7325C302.663 68.12 304.319 67.8075 306.214 67.8075C307.875 67.8075 309.444 68.07 310.927 68.5925C312.441 69.1313 313.822 69.9908 314.975 71.1125L312.528 74.945C311.371 73.995 310.262 73.3025 309.194 72.87C308.165 72.4465 307.064 72.2275 305.952 72.225C305.329 72.225 304.745 72.3 304.197 72.445C303.696 72.563 303.235 72.8123 302.862 73.1675C302.521 73.5025 302.349 73.9775 302.349 74.5925C302.349 75.1175 302.503 75.5425 302.818 75.865C303.129 76.1875 303.601 76.465 304.241 76.695C304.875 76.9275 305.655 77.1925 306.573 77.4875C308.441 78.015 310.012 78.5475 311.287 79.0875C312.561 79.63 313.531 80.3075 314.199 81.13C314.865 81.9475 315.202 83.0575 315.202 84.4625C315.202 86.7475 314.356 88.53 312.666 89.8175C310.977 91.1025 308.71 91.7425 305.865 91.7425L305.855 91.745ZM319.237 64.645V58.76H325.147V64.645H319.237ZM319.237 91.295V67.9425H325.147V91.2925L319.237 91.295ZM339.689 91.745C338.22 91.7606 336.768 91.4399 335.442 90.8075C334.17 90.1935 333.042 89.3178 332.13 88.2375C331.194 87.1214 330.471 85.8416 329.998 84.4625C329.487 82.9987 329.231 81.4581 329.24 79.9075C329.24 78.21 329.499 76.6325 330.018 75.1725C330.51 73.7573 331.264 72.4478 332.24 71.3125C333.182 70.2116 334.35 69.3273 335.664 68.72C337.039 68.0984 338.534 67.7861 340.043 67.805C341.848 67.805 343.434 68.205 344.801 69.01C346.163 69.81 347.292 70.8975 348.18 72.26V68.16H353.385V90.2475C353.385 92.5475 352.821 94.52 351.697 96.16C350.572 97.7975 349.043 99.0525 347.118 99.9225C345.19 100.79 342.968 101.227 340.449 101.227C337.933 101.227 335.796 100.802 334.05 99.9575C332.304 99.1139 330.769 97.8879 329.559 96.37L332.801 93.205C333.691 94.305 334.811 95.165 336.16 95.7875C337.507 96.4125 338.936 96.725 340.449 96.725C341.694 96.725 342.851 96.505 343.916 96.075C344.943 95.6729 345.827 94.971 346.452 94.06C347.078 93.15 347.387 91.96 347.387 90.485V87.5425C346.649 88.8782 345.523 89.9582 344.16 90.64C342.781 91.3602 341.249 91.7343 339.694 91.73L339.689 91.745ZM341.689 86.975C342.37 86.975 343.001 86.87 343.582 86.66C344.158 86.45 344.701 86.17 345.205 85.81C345.708 85.4511 346.158 85.0218 346.539 84.535C346.923 84.045 347.205 83.5325 347.382 82.995V77.45C346.76 75.6968 345.475 74.2597 343.804 73.45C343.033 73.0799 342.189 72.8885 341.335 72.89C340.478 72.8867 339.633 73.0863 338.868 73.4725C338.11 73.8575 337.464 74.395 336.936 75.0825C336.393 75.7815 335.972 76.5676 335.691 77.4075C335.397 78.2701 335.247 79.1757 335.247 80.0875C335.247 81.0125 335.419 81.935 335.758 82.7725C336.085 83.586 336.552 84.3357 337.138 84.9875C337.716 85.6275 338.404 86.12 339.207 86.4625C340.005 86.805 340.836 86.9775 341.699 86.9775L341.689 86.975ZM380.453 91.3H374.495V78.3825C374.495 76.595 374.146 75.2625 373.453 74.385C372.754 73.51 371.802 73.0675 370.585 73.0675C369.874 73.0675 369.121 73.2725 368.318 73.6775C367.52 74.0825 366.797 74.64 366.163 75.35C365.522 76.06 365.041 76.8825 364.714 77.81V91.295H358.804V58.765H364.714V72.485C365.596 71.0521 366.829 69.8689 368.295 69.0475C369.768 68.2234 371.43 67.7986 373.116 67.815C374.627 67.815 375.867 68.065 376.827 68.565C377.789 69.065 378.533 69.755 379.051 70.635C379.568 71.515 379.932 72.49 380.139 73.5625C380.348 74.6375 380.453 75.7325 380.453 76.845V91.3ZM399.615 90.14C399.079 90.375 398.466 90.62 397.768 90.875C397.069 91.13 396.316 91.335 395.501 91.5C394.688 91.6631 393.861 91.7452 393.032 91.745C391.907 91.745 390.882 91.5525 389.964 91.17C389.06 90.8011 388.292 90.1611 387.765 89.3375C387.216 88.5025 386.944 87.4025 386.944 86.05V72.7175H383.922V68.1675H386.944V60.5925H392.947V68.1675H397.837V72.7175H392.947V84.0225C392.974 84.8125 393.196 85.3975 393.613 85.76C394.029 86.1275 394.56 86.31 395.214 86.31C395.807 86.31 396.398 86.195 396.992 85.9725C397.588 85.75 398.072 85.55 398.458 85.3725L399.615 90.145V90.14ZM411.306 91.745C409.36 91.7516 407.426 91.4191 405.593 90.7625C403.849 90.1569 402.262 89.1668 400.95 87.865L403.127 83.985C404.486 85.115 405.84 85.945 407.172 86.485C408.506 87.02 409.808 87.285 411.082 87.285C412.239 87.285 413.164 87.085 413.86 86.685C414.186 86.5128 414.457 86.2518 414.641 85.932C414.826 85.6122 414.916 85.2466 414.903 84.8775C414.903 84.29 414.708 83.845 414.326 83.535C413.94 83.2275 413.389 82.9625 412.661 82.745C411.782 82.4797 410.901 82.223 410.017 81.975C408.551 81.5415 407.117 81.0052 405.725 80.37C404.583 79.83 403.715 79.1525 403.127 78.345C402.531 77.5425 402.236 76.505 402.236 75.245C402.236 73.72 402.63 72.4075 403.416 71.3075C404.202 70.2075 405.299 69.3475 406.705 68.7325C408.112 68.12 409.768 67.8075 411.663 67.8075C413.324 67.8075 414.893 68.07 416.376 68.5925C417.89 69.1313 419.271 69.9908 420.424 71.1125L417.977 74.945C416.823 73.995 415.711 73.3025 414.643 72.87C413.614 72.4465 412.513 72.2275 411.401 72.225C410.78 72.225 410.194 72.3 409.646 72.445C409.097 72.59 408.651 72.83 408.311 73.1675C407.972 73.5025 407.798 73.9775 407.798 74.5925C407.798 75.1175 407.952 75.5425 408.267 75.865C408.578 76.1875 409.05 76.465 409.69 76.695C410.326 76.9275 411.107 77.1925 412.022 77.4875C413.89 78.015 415.461 78.5475 416.736 79.0875C418.01 79.63 418.98 80.3075 419.648 81.13C420.314 81.9475 420.651 83.0575 420.651 84.4625C420.651 86.7475 419.808 88.53 418.115 89.8175C416.426 91.1025 414.159 91.7425 411.314 91.7425L411.306 91.745Z" fill="#164ED0"/>
</g>
<defs>
<linearGradient id="paint0_linear_714_2" x1="-54.1988" y1="5.1425" x2="108.743" y2="88.4879" gradientUnits="userSpaceOnUse">
<stop stop-color="#262FD6"/>
<stop offset="1" stop-color="#2657D7" stop-opacity="0"/>
</linearGradient>
<linearGradient id="paint1_linear_714_2" x1="-13.8936" y1="10.4775" x2="102.45" y2="90.9756" gradientUnits="userSpaceOnUse">
<stop stop-color="#262FD6"/>
<stop offset="1" stop-color="#2657D7" stop-opacity="0"/>
</linearGradient>
<linearGradient id="paint2_linear_714_2" x1="226.01" y1="128.705" x2="21.8815" y2="50.7869" gradientUnits="userSpaceOnUse">
<stop stop-color="#262FD6"/>
<stop offset="1" stop-color="#2657D7" stop-opacity="0"/>
</linearGradient>
<linearGradient id="paint3_linear_714_2" x1="128.863" y1="-27.0825" x2="63.5735" y2="65.6257" gradientUnits="userSpaceOnUse">
<stop stop-color="#262FD6"/>
<stop offset="1" stop-color="#2657D7" stop-opacity="0"/>
</linearGradient>
<linearGradient id="paint4_linear_714_2" x1="201.556" y1="-13.4175" x2="65.5334" y2="63.6013" gradientUnits="userSpaceOnUse">
<stop stop-color="#260075"/>
<stop offset="1" stop-color="#260076" stop-opacity="0"/>
</linearGradient>
<linearGradient id="paint5_linear_714_2" x1="152.934" y1="43.5525" x2="-1.12515" y2="126.699" gradientUnits="userSpaceOnUse">
<stop stop-color="#265AD7"/>
<stop offset="1" stop-color="#2647D7" stop-opacity="0"/>
</linearGradient>
<linearGradient id="paint6_linear_714_2" x1="161.368" y1="172.38" x2="17.2569" y2="68.3484" gradientUnits="userSpaceOnUse">
<stop stop-color="#265AD7"/>
<stop offset="1" stop-color="#2647D7" stop-opacity="0"/>
</linearGradient>
<linearGradient id="paint7_linear_714_2" x1="119.496" y1="180.013" x2="36.211" y2="71.9065" gradientUnits="userSpaceOnUse">
<stop stop-color="#265AD7"/>
<stop offset="1" stop-color="#2647D7" stop-opacity="0"/>
</linearGradient>
<linearGradient id="paint8_linear_714_2" x1="96.7226" y1="190.595" x2="47.6673" y2="81.6882" gradientUnits="userSpaceOnUse">
<stop stop-color="#265AD7"/>
<stop offset="1" stop-color="#2647D7" stop-opacity="0"/>
</linearGradient>
<linearGradient id="paint9_linear_714_2" x1="69.3753" y1="158.945" x2="24.7602" y2="46.8557" gradientUnits="userSpaceOnUse">
<stop stop-color="#2637D7"/>
<stop offset="1" stop-color="#265FD7" stop-opacity="0"/>
</linearGradient>
<linearGradient id="paint10_linear_714_2" x1="89.4806" y1="155.917" x2="-7.21934" y2="7.03318" gradientUnits="userSpaceOnUse">
<stop stop-color="#2637D7"/>
<stop offset="1" stop-color="#265FD7" stop-opacity="0"/>
</linearGradient>
<linearGradient id="paint11_linear_714_2" x1="-97.4093" y1="-10.3475" x2="39.8975" y2="74.0193" gradientUnits="userSpaceOnUse">
<stop stop-color="#2637D7"/>
<stop offset="1" stop-color="#265FD7" stop-opacity="0"/>
</linearGradient>
<linearGradient id="paint12_linear_714_2" x1="131.035" y1="177.277" x2="27.2013" y2="63.4306" gradientUnits="userSpaceOnUse">
<stop stop-color="#2637D7"/>
<stop offset="1" stop-color="#265FD7" stop-opacity="0"/>
</linearGradient>
<linearGradient id="paint13_linear_714_2" x1="-102.195" y1="-41.6175" x2="31.3906" y2="67.896" gradientUnits="userSpaceOnUse">
<stop stop-color="#2637D7"/>
<stop offset="1" stop-color="#265FD7" stop-opacity="0"/>
</linearGradient>
<linearGradient id="paint14_linear_714_2" x1="-45.8245" y1="111.455" x2="40.3705" y2="62.0142" gradientUnits="userSpaceOnUse">
<stop stop-color="#2637D7"/>
<stop offset="1" stop-color="#265FD7" stop-opacity="0"/>
</linearGradient>
<linearGradient id="paint15_linear_714_2" x1="-69.7079" y1="56.605" x2="35.6742" y2="71.6196" gradientUnits="userSpaceOnUse">
<stop stop-color="#2637D7"/>
<stop offset="1" stop-color="#265FD7" stop-opacity="0"/>
</linearGradient>
<linearGradient id="paint16_linear_714_2" x1="-50.3783" y1="140.587" x2="34.635" y2="61.2397" gradientUnits="userSpaceOnUse">
<stop stop-color="#2637D7"/>
<stop offset="1" stop-color="#265FD7" stop-opacity="0"/>
</linearGradient>
<linearGradient id="paint17_linear_714_2" x1="56.3551" y1="-23.99" x2="34.4459" y2="44.7387" gradientUnits="userSpaceOnUse">
<stop stop-color="#2637D7"/>
<stop offset="1" stop-color="#265FD7" stop-opacity="0"/>
</linearGradient>
<linearGradient id="paint18_linear_714_2" x1="-114.312" y1="136.595" x2="38.1569" y2="64.9955" gradientUnits="userSpaceOnUse">
<stop stop-color="#2637D7"/>
<stop offset="1" stop-color="#265FD7" stop-opacity="0"/>
</linearGradient>
<linearGradient id="paint19_linear_714_2" x1="4.66301" y1="63.995" x2="49.046" y2="31.9917" gradientUnits="userSpaceOnUse">
<stop stop-color="#2625D6"/>
<stop offset="1" stop-color="#265BD7" stop-opacity="0"/>
</linearGradient>
<linearGradient id="paint20_linear_714_2" x1="70.7544" y1="114.865" x2="12.4285" y2="101.092" gradientUnits="userSpaceOnUse">
<stop stop-color="#263FD7"/>
<stop offset="1" stop-color="#265BD7" stop-opacity="0"/>
</linearGradient>
<linearGradient id="paint21_linear_714_2" x1="-8.60415" y1="69.8425" x2="41.0899" y2="37.9019" gradientUnits="userSpaceOnUse">
<stop stop-color="#2613BD"/>
<stop offset="1" stop-color="#2661D7" stop-opacity="0"/>
</linearGradient>
<linearGradient id="paint22_linear_714_2" x1="188.585" y1="66.0775" x2="59.7494" y2="84.1173" gradientUnits="userSpaceOnUse">
<stop stop-color="#265ED7"/>
<stop offset="1" stop-color="#2646D7" stop-opacity="0"/>
</linearGradient>
<linearGradient id="paint23_linear_714_2" x1="136.851" y1="124.293" x2="13.512" y2="102.151" gradientUnits="userSpaceOnUse">
<stop stop-color="#261FD0"/>
<stop offset="1" stop-color="#264ED7" stop-opacity="0"/>
</linearGradient>
<linearGradient id="paint24_linear_714_2" x1="4.66301" y1="63.995" x2="49.046" y2="31.9917" gradientUnits="userSpaceOnUse">
<stop stop-color="#2625D6"/>
<stop offset="1" stop-color="#265BD7" stop-opacity="0"/>
</linearGradient>
<linearGradient id="paint25_linear_714_2" x1="70.7544" y1="114.865" x2="12.4285" y2="101.092" gradientUnits="userSpaceOnUse">
<stop stop-color="#263FD7"/>
<stop offset="1" stop-color="#265BD7" stop-opacity="0"/>
</linearGradient>
<linearGradient id="paint26_linear_714_2" x1="136.923" y1="186.072" x2="62.6232" y2="49.4215" gradientUnits="userSpaceOnUse">
<stop stop-color="#FFF5FF"/>
<stop offset="1" stop-color="#2652C7" stop-opacity="0"/>
</linearGradient>
<linearGradient id="paint27_linear_714_2" x1="238.25" y1="64.78" x2="64.3576" y2="66.8721" gradientUnits="userSpaceOnUse">
<stop stop-color="#FFF5FF"/>
<stop offset="1" stop-color="#2652C7" stop-opacity="0"/>
</linearGradient>
<linearGradient id="paint28_linear_714_2" x1="96.7226" y1="190.595" x2="47.6673" y2="81.6882" gradientUnits="userSpaceOnUse">
<stop stop-color="#265AD7"/>
<stop offset="1" stop-color="#2647D7" stop-opacity="0"/>
</linearGradient>
<linearGradient id="paint29_linear_714_2" x1="129.217" y1="136.398" x2="42.2363" y2="88.2649" gradientUnits="userSpaceOnUse">
<stop stop-color="#260051"/>
<stop offset="1" stop-color="#260066" stop-opacity="0"/>
</linearGradient>
<linearGradient id="paint30_linear_714_2" x1="-47.3358" y1="78.7875" x2="64.4638" y2="96.6387" gradientUnits="userSpaceOnUse">
<stop stop-color="#FFF5FF"/>
<stop offset="1" stop-color="#2652C7" stop-opacity="0"/>
</linearGradient>
<linearGradient id="paint31_linear_714_2" x1="-54.0342" y1="135.895" x2="35.7098" y2="61.5431" gradientUnits="userSpaceOnUse">
<stop stop-color="#260064"/>
<stop offset="1" stop-color="#260066" stop-opacity="0"/>
</linearGradient>
<linearGradient id="paint32_linear_714_2" x1="122.92" y1="12.995" x2="0.176145" y2="84.8501" gradientUnits="userSpaceOnUse">
<stop stop-color="#FFF5FF"/>
<stop offset="1" stop-color="#2652C7" stop-opacity="0"/>
</linearGradient>
<linearGradient id="paint33_linear_714_2" x1="126.21" y1="94.4175" x2="71.9388" y2="82.3694" gradientUnits="userSpaceOnUse">
<stop stop-color="#2609B2"/>
<stop offset="1" stop-color="#2631C7" stop-opacity="0"/>
</linearGradient>
<linearGradient id="paint34_linear_714_2" x1="139.746" y1="104.5" x2="53.0012" y2="76.8842" gradientUnits="userSpaceOnUse">
<stop stop-color="#262AB2"/>
<stop offset="1" stop-color="#2652C7" stop-opacity="0"/>
</linearGradient>
<linearGradient id="paint35_linear_714_2" x1="16.9252" y1="55.935" x2="57.932" y2="29.9368" gradientUnits="userSpaceOnUse">
<stop stop-color="#262AB2"/>
<stop offset="1" stop-color="#2652C7" stop-opacity="0"/>
</linearGradient>
<linearGradient id="paint36_linear_714_2" x1="74.6074" y1="114.948" x2="4.52796" y2="95.2903" gradientUnits="userSpaceOnUse">
<stop stop-color="#262AB2"/>
<stop offset="1" stop-color="#2652C7" stop-opacity="0"/>
</linearGradient>
</defs>
</svg>
