<svg width="440" height="160" viewBox="0 0 440 160" fill="none" xmlns="http://www.w3.org/2000/svg">
<path d="M157.81 109.731V75.3386H143.763V64.5495H183.926V75.2947H169.879V109.687H157.81V109.731Z" fill="white"/>
<path d="M196.389 87.0472C196.389 73.3473 206.82 63.5974 220.032 63.5974C233.331 63.5974 243.708 73.3472 243.708 87.0472C243.708 100.758 233.287 110.639 220.032 110.639C206.82 110.639 196.389 100.758 196.389 87.0472ZM231.255 87.0472C231.255 79.9565 227.23 74.2118 220.032 74.2118C212.822 74.2118 208.799 79.9128 208.799 87.0472C208.799 94.1485 212.822 100.025 220.032 100.025C227.23 100.025 231.255 94.1924 231.255 87.0472Z" fill="white"/>
<path d="M260.546 109.731V64.5495H279.33C291.695 64.5495 298.817 70.0315 298.817 79.6499C298.817 85.4384 295.322 90.231 289.09 92.7919L300.313 109.731H285.957L276.583 94.7069H272.615V109.731L260.546 109.731ZM272.615 84.869H278.791C284.145 84.869 286.662 83.217 286.662 79.6497C286.662 76.0823 284.189 74.3865 278.791 74.3865H272.615V84.869Z" fill="white"/>
<path d="M313.174 87.0472C313.174 73.3473 323.604 63.5974 336.815 63.5974C350.116 63.5974 360.503 73.3472 360.503 87.0472C360.503 100.758 350.072 110.639 336.815 110.639C323.56 110.639 313.174 100.758 313.174 87.0472ZM348.038 87.0472C348.038 79.9565 344.016 74.2118 336.815 74.2118C329.617 74.2118 325.594 79.9128 325.594 87.0472C325.594 94.1485 329.617 100.025 336.815 100.025C344.016 100.025 348.038 94.1924 348.038 87.0472Z" fill="white"/>
<path d="M387.056 64.5495H373.011L383.792 83.8302C384.266 84.6941 384.507 85.6658 384.489 86.6498C384.472 87.634 384.197 88.5967 383.693 89.4435L371.328 109.687H385.551L395.894 91.2705C396.662 89.9147 397.08 88.3901 397.11 86.8336C397.143 85.2773 396.784 83.7375 396.069 82.3526L387.056 64.5495Z" fill="white"/>
<path d="M405.26 64.5495H419.317L408.536 83.83C408.056 84.692 407.814 85.6637 407.829 86.6483C407.844 87.6331 408.117 88.5966 408.624 89.4433L421 109.687H406.765L396.423 91.2705C395.659 89.9128 395.244 88.3888 395.214 86.8334C395.183 85.278 395.539 83.739 396.247 82.3526L405.26 64.5495Z" fill="white"/>
<path d="M76.3201 65.2496C74.6535 66.2771 73.2772 67.7105 72.3215 69.4145C71.3655 71.1185 70.8617 73.037 70.8573 74.9887L67.3073 103.253C67.2802 103.466 67.1759 103.662 67.0141 103.804C66.8522 103.946 66.6438 104.024 66.428 104.024C66.2121 104.024 66.0038 103.946 65.842 103.804C65.68 103.662 65.5759 103.466 65.5488 103.253L61.9986 75.0105C61.9996 73.0579 61.498 71.1375 60.5417 69.4325C59.5852 67.7276 58.2062 66.295 56.5358 65.2714L18 41.527L20.3081 64.9654L38.9166 76.4547C40.2016 77.241 41.2629 78.3416 41.9998 79.6516C42.7366 80.9616 43.1244 82.4377 43.1263 83.9391L47.2479 125.893C47.3323 126.745 47.7327 127.535 48.3708 128.11C49.0089 128.684 49.8389 129.002 50.6994 129H82.2006C83.0597 128.998 83.8877 128.679 84.5249 128.105C85.1622 127.532 85.5635 126.743 85.6519 125.893L89.7736 83.9391C89.7701 82.4368 90.1558 80.9587 90.893 79.6478C91.6304 78.3368 92.6946 77.2371 93.9831 76.4547L112.592 64.9654L114.9 41.527L76.3201 65.2496Z" fill="url(#paint0_linear_662_434)"/>
<path fill-rule="evenodd" clip-rule="evenodd" d="M32.9922 31L18 41.527L35.0696 52.0203L32.9922 31ZM20.9566 71.5852L36.1248 80.9519C36.7239 81.3176 37.2289 81.8179 37.5991 82.4126C37.9694 83.0074 38.1948 83.6802 38.2571 84.3773L39.9168 101.163L24.7377 91.752C24.1405 91.3842 23.6372 90.8834 23.2672 90.2892C22.8972 89.695 22.6706 89.0235 22.6053 88.3272L20.9566 71.5852ZM99.8527 31L97.7864 52.0203L114.856 41.5269L99.8527 31ZM111.91 71.5852L96.7307 80.9519C96.1316 81.3176 95.6268 81.8179 95.2566 82.4126C94.8863 83.0076 94.6609 83.6802 94.5985 84.3773L92.9389 101.163L108.118 91.752C108.715 91.3842 109.219 90.8835 109.588 90.2892C109.958 89.695 110.185 89.0235 110.25 88.3272L111.91 71.5852Z" fill="url(#paint1_linear_662_434)"/>
<defs>
<linearGradient id="paint0_linear_662_434" x1="116.841" y1="120.057" x2="125.854" y2="22.8218" gradientUnits="userSpaceOnUse">
<stop stop-color="#6A38FF"/>
<stop offset="1" stop-color="#BB69FF"/>
</linearGradient>
<linearGradient id="paint1_linear_662_434" x1="67.7303" y1="27.9466" x2="61.0959" y2="97.743" gradientUnits="userSpaceOnUse">
<stop stop-color="#8813BA"/>
<stop offset="1" stop-color="#8D40F7"/>
</linearGradient>
</defs>
</svg>
