<svg width="440" height="160" viewBox="0 0 440 160" fill="none" xmlns="http://www.w3.org/2000/svg">
<path d="M303.799 71.348C301.576 71.2957 299.405 71.9582 297.62 73.2485C296.342 74.0855 295.239 75.1491 294.399 76.4045C293.664 74.8701 292.509 73.5798 291.038 72.6906C289.586 71.8013 287.888 71.3305 286.172 71.348C284.492 71.2957 282.811 71.6618 281.306 72.4116C279.801 73.1439 278.506 74.2424 277.525 75.6024L277.298 72.0454H269.754V72.6731C269.911 75.0619 269.981 77.8342 269.981 81.7051V103.675H278.348V85.0877C278.348 84.2856 278.471 83.501 278.733 82.7513C279.346 80.781 281.044 78.7932 283.424 78.7932C287.415 78.7932 287.835 83.4661 287.835 85.4713V103.675H296.202V84.8262C296.219 84.0241 296.324 83.2395 296.517 82.4548C297.13 80.7287 298.688 78.7758 301.103 78.7758C304.901 78.7758 305.689 82.8384 305.689 86.2559V103.657H314.108V85.1226C314.108 72.307 306.232 71.348 303.781 71.348H303.799Z" fill="white"/>
<path d="M332.75 71.7664C322.44 71.7664 317.732 80.5717 317.732 88.7493C317.732 98.6531 323.788 104.791 333.538 104.791C337.144 104.826 340.732 104.163 344.075 102.803L344.513 102.611L343.182 96.1423L342.517 96.4038C339.979 97.3628 337.284 97.8162 334.553 97.7464C329.617 97.7464 326.501 95.253 326.099 91.016H345.703L345.79 90.5453C345.965 89.4293 346.053 88.3134 346.053 87.1801C346.053 80.0486 342.57 71.7664 332.733 71.7664H332.75ZM332.33 78.183C333.013 78.1481 333.678 78.2702 334.308 78.5143C334.938 78.7584 335.516 79.1245 335.988 79.5779C337.179 80.9379 337.844 82.6815 337.844 84.4774H326.151C326.589 81.8794 328.252 78.2004 332.33 78.2004V78.183Z" fill="white"/>
<path d="M378.225 94.8346V57.8698H368.458V74.2075C366.795 72.2023 364.572 71.2782 361.456 71.2782C359.759 71.2782 358.078 71.6095 356.503 72.2547C354.927 72.8998 353.51 73.8413 352.319 75.0444C349.134 78.1655 347.401 82.9082 347.436 88.3483C347.436 97.7987 353.09 104.686 360.861 104.686C364.975 104.686 367.985 102.855 370.033 99.1064H370.068L369.438 104.128H378.505V103.518C378.365 101.548 378.243 98.0428 378.243 94.8346H378.225ZM368.668 86.2385V90.8765C368.668 91.6089 368.615 92.3412 368.44 93.0386C367.793 96.0202 366.2 97.3454 363.259 97.3454C358.988 97.3454 356.345 93.8233 356.345 88.1565C356.345 82.4897 359.076 78.5317 363.347 78.5317C366.55 78.5317 367.933 81.6877 368.51 84.3205C368.616 84.9657 368.668 85.6108 368.668 86.2559V86.2385Z" fill="white"/>
<path d="M388.307 58.7241C387.59 58.6893 386.855 58.7939 386.189 59.038C385.507 59.2821 384.894 59.6657 384.369 60.1713C383.844 60.6596 383.441 61.2698 383.161 61.915C382.881 62.5775 382.759 63.275 382.776 63.9899C382.776 64.6873 382.916 65.3673 383.196 66.0125C383.476 66.6576 383.879 67.233 384.386 67.7038C384.894 68.192 385.507 68.5582 386.154 68.8023C386.82 69.0464 387.52 69.1684 388.22 69.1336C391.458 69.1336 393.821 66.954 393.821 63.9201C393.821 63.2227 393.681 62.5252 393.401 61.8801C393.121 61.235 392.718 60.6421 392.193 60.1539C391.686 59.6657 391.073 59.2821 390.39 59.038C389.725 58.7939 389.007 58.6718 388.29 58.7067L388.307 58.7241Z" fill="white"/>
<path d="M392.893 72.0629H383.686V104.128H392.893V72.0629Z" fill="white"/>
<path d="M422.86 103.465C422.545 101.042 422.405 98.6008 422.422 96.1597V85.0528C422.422 76.3522 417.766 71.5398 409.312 71.5398C405.374 71.47 401.47 72.429 398.039 74.347L397.672 74.5737L399.51 80.7635L400.157 80.3451C402.52 78.9153 405.251 78.1655 408.034 78.1655C412.638 78.1655 413.618 80.7461 413.635 82.9082C402.013 82.9779 395.606 87.3021 395.606 95.0787C395.606 99.9085 399.107 104.791 405.741 104.791C407.369 104.826 408.979 104.529 410.485 103.919C411.99 103.309 413.355 102.402 414.493 101.269L414.896 104.093H423L422.86 103.465ZM408.122 98.1126C405.724 98.1126 404.341 96.7002 404.341 94.2592C404.341 89.9524 409.399 89.098 413.635 89.098H413.775V92.7771C413.775 93.3002 413.705 93.8233 413.565 94.3115C413.18 95.4274 412.445 96.3864 411.465 97.0664C410.485 97.7464 409.312 98.1126 408.122 98.0951V98.1126Z" fill="white"/>
<path d="M41.6257 59.2124H34.5541L16 103.413H26.1347L30.3182 93.7535H46.2117L50.2026 103.413H60.3548L41.6257 59.2124ZM43.4636 85.5759H33.3288L38.1424 73.9111L43.4636 85.5759Z" fill="white"/>
<path d="M89.2712 73.8239C87.9934 72.3941 86.4181 71.2608 84.6502 70.4936C82.8823 69.7264 80.9744 69.3428 79.0489 69.3602C76.7384 69.43 74.4629 69.9531 72.3625 70.9121C70.262 71.8711 68.3891 73.2485 66.8662 74.9573C63.9256 78.305 62.3327 82.5769 62.3853 86.9883C62.3853 91.3473 63.9956 95.5669 66.8662 98.8798C68.3366 100.606 70.157 101.983 72.2224 102.942C74.2879 103.901 76.5284 104.407 78.8214 104.407C80.9919 104.442 83.1448 103.971 85.0703 102.995C87.0132 102.036 88.6761 100.623 89.9363 98.8798V103.326H97.4105V58.4452H89.2887V73.8239H89.2712ZM79.9767 96.2992C74.673 96.2992 70.7521 91.8878 70.7521 86.6047C70.7521 81.7748 75.0231 77.3635 79.8366 77.3635C82.3922 77.3635 84.8427 78.3225 86.6456 80.101C88.466 81.862 89.4812 84.2682 89.4987 86.779C89.4987 89.2898 88.5185 91.696 86.7156 93.4745C84.9302 95.253 82.4797 96.2643 79.9241 96.2818H79.9591L79.9767 96.2992Z" fill="white"/>
<path d="M193.909 75.8291C191.284 70.8423 185.595 68.4187 179.994 68.4187C175.058 68.4187 170.052 70.1449 164.643 75.8291C163.348 76.9799 160.932 81.7748 160.932 86.4303C160.932 91.7309 163.138 96.1597 164.433 97.5546C168.984 102.716 174.76 104.982 180.099 104.982C185.437 104.982 191.144 102.489 193.874 97.5546V104.128H198.495V69.1684H193.892V75.8116L193.909 75.8291ZM180.116 100.449C172.502 100.449 165.746 94.5033 165.746 86.8313C165.746 85.0005 166.131 83.1872 166.848 81.4959C167.566 79.8045 168.616 78.2701 169.947 76.9799C171.277 75.6896 172.835 74.6783 174.55 73.9808C176.265 73.2834 178.121 72.9347 179.976 72.9521C181.832 72.9521 183.67 73.3008 185.367 73.9983C187.083 74.6957 188.623 75.7245 189.918 77.0322C191.214 78.3225 192.246 79.8743 192.912 81.5656C193.594 83.2569 193.927 85.0703 193.892 86.8836C193.822 90.4581 192.351 93.8756 189.778 96.4038C187.205 98.9321 183.74 100.379 180.099 100.449H180.116Z" fill="white"/>
<path d="M136.287 82.2456V86.5524H152.163V88.2785C149.117 95.6192 141.118 100.449 132.978 100.449C121.338 100.449 111.466 91.853 111.466 80.3276C111.536 77.6076 112.166 74.9224 113.339 72.429C114.494 69.9531 116.157 67.7387 118.223 65.9079C122.248 62.4381 127.43 60.5375 132.786 60.5898C139.49 60.5898 146.439 63.1704 149.94 68.593L153.93 65.6986C152.058 63.2401 149.765 61.1303 147.157 59.439C142.921 56.7538 137.914 56.0041 132.821 56.0041C125.872 55.882 119.15 58.4975 114.162 63.2401C109.471 67.7038 106.758 73.8065 106.618 80.223C106.618 94.0674 118.73 104.965 132.838 104.965C143.323 104.965 152.88 98.8275 156.836 89.7955V82.2805H136.304L136.287 82.2456Z" fill="white"/>
<path d="M215.001 56.6841H210.17V68.9941H203.484V73.3008H210.17V104.076H215.001V73.3008H222.423V68.9941H215.001V56.6841Z" fill="white"/>
<path d="M243.463 68.2966C238.509 68.2966 233.783 70.2669 230.282 73.7193C226.799 77.1717 224.839 81.8446 224.856 86.7093C224.856 91.574 226.852 96.2295 230.37 99.6644C233.888 103.099 238.632 105.017 243.585 105C246.911 104.913 250.167 103.971 253.002 102.28C255.838 100.571 258.184 98.1649 259.776 95.2879L255.891 92.7073C253.738 97.5197 248.399 100.449 243.113 100.449C240.715 100.379 238.352 99.7167 236.286 98.5136C234.221 97.3105 232.488 95.6018 231.263 93.5617C230.055 91.574 229.477 89.2898 229.565 86.9883H261.859V86.6395C261.842 82.4548 260.407 78.3922 257.781 75.0968C256.066 72.987 253.878 71.2782 251.392 70.11C248.906 68.9418 246.193 68.3141 243.445 68.3141L243.463 68.2966ZM230.265 82.5595C231.333 77.5553 237.616 72.8475 243.515 72.8475C249.414 72.8475 255.295 77.3286 256.468 82.4548L230.265 82.5595Z" fill="white"/>
</svg>
