<svg width="440" height="160" viewBox="0 0 440 160" fill="none" xmlns="http://www.w3.org/2000/svg">
<path fill-rule="evenodd" clip-rule="evenodd" d="M240.182 103.818C239.934 104.517 239.595 105.085 239.164 105.523C238.734 105.97 238.251 106.301 237.701 106.51C237.158 106.725 236.592 106.826 235.997 106.826C235.083 106.819 234.291 106.597 233.605 106.142C232.917 105.696 232.391 105.063 232.006 104.243C231.62 103.423 231.433 102.458 231.424 101.344C231.433 100.206 231.65 99.2424 232.066 98.451C232.48 97.6595 233.039 97.0624 233.725 96.6519C234.411 96.2414 235.173 96.033 235.997 96.033C236.765 96.0394 237.437 96.1913 238.011 96.4859C238.584 96.7806 239.059 97.177 239.436 97.6814C239.814 98.1846 240.1 98.7534 240.289 99.3865C240.477 100.012 240.568 100.667 240.568 101.344C240.56 102.3 240.432 103.127 240.182 103.818ZM240.342 82.0025V90.5073C240.342 90.7955 240.349 91.0323 240.364 91.2125L240.387 91.5007H240.296C240.304 91.493 240.206 91.399 240.001 91.2266C239.806 91.0477 239.474 90.8457 239.006 90.6154C238.546 90.385 237.912 90.183 237.128 90.0041C236.336 89.8304 235.355 89.7377 234.186 89.73C232.631 89.7377 231.205 90.0105 229.908 90.5574C228.611 91.0979 227.493 91.8816 226.543 92.8956C225.593 93.9174 224.862 95.1335 224.34 96.558C223.82 97.9838 223.556 99.5808 223.549 101.344C223.556 103.077 223.805 104.654 224.296 106.078C224.793 107.501 225.502 108.733 226.423 109.761C227.343 110.79 228.452 111.588 229.733 112.151C231.025 112.712 232.458 112.992 234.05 113C235.008 112.992 235.853 112.878 236.592 112.662C237.331 112.445 237.965 112.179 238.501 111.862C239.029 111.539 239.467 111.223 239.806 110.899C240.145 110.582 240.395 110.316 240.553 110.099C240.718 109.885 240.793 109.769 240.793 109.761H240.884L240.862 110.129C240.846 110.366 240.84 110.661 240.84 111.013V112.481H248.172V82.0025H240.342Z" fill="white"/>
<path fill-rule="evenodd" clip-rule="evenodd" d="M183.137 98.5369C183.273 97.9836 183.491 97.465 183.793 96.976C184.095 96.4934 184.495 96.1048 185.007 95.8024C185.513 95.5077 186.146 95.3494 186.893 95.3417C187.519 95.3494 188.055 95.5012 188.515 95.7946C188.975 96.0906 189.33 96.4792 189.586 96.9605C189.843 97.4431 189.971 97.9694 189.971 98.5369H183.137ZM197.13 96.1987C196.655 94.8887 195.961 93.7524 195.041 92.7886C194.12 91.8234 192.997 91.0745 191.661 90.543C190.325 90.0103 188.794 89.7375 187.074 89.7298C185.196 89.7375 183.506 90.0386 182.012 90.6293C180.518 91.2199 179.244 92.0396 178.195 93.091C177.139 94.1475 176.339 95.3713 175.781 96.7804C175.231 98.1843 174.952 99.7028 174.944 101.344C174.944 102.53 175.125 103.696 175.48 104.826C175.834 105.956 176.355 107.013 177.056 107.999C177.75 108.985 178.617 109.855 179.643 110.597C180.676 111.345 181.87 111.936 183.227 112.352C184.577 112.777 186.087 112.993 187.754 113C188.997 112.993 190.138 112.877 191.171 112.661C192.204 112.445 193.132 112.179 193.939 111.862C194.747 111.539 195.433 111.223 195.991 110.898C196.55 110.582 196.98 110.315 197.273 110.099C197.561 109.884 197.711 109.768 197.711 109.762L194.814 104.537C194.806 104.553 194.626 104.667 194.278 104.891C193.931 105.114 193.456 105.365 192.861 105.661C192.257 105.956 191.571 106.208 190.8 106.43C190.039 106.653 189.232 106.769 188.387 106.783C187.55 106.783 186.751 106.647 186.004 106.358C185.257 106.071 184.607 105.639 184.073 105.048C183.537 104.459 183.159 103.718 182.956 102.812H197.666C197.666 102.803 197.673 102.718 197.697 102.552L197.756 101.919C197.779 101.667 197.801 101.416 197.817 101.157C197.839 100.897 197.847 100.667 197.847 100.48C197.847 98.9255 197.606 97.501 197.13 96.1987Z" fill="white"/>
<path fill-rule="evenodd" clip-rule="evenodd" d="M124.163 103.818C123.915 104.517 123.576 105.085 123.145 105.523C122.715 105.97 122.232 106.301 121.682 106.51C121.139 106.725 120.573 106.826 119.978 106.826C119.064 106.819 118.272 106.597 117.586 106.142C116.898 105.696 116.372 105.063 115.986 104.243C115.601 103.423 115.414 102.458 115.405 101.344C115.414 100.206 115.631 99.2424 116.047 98.451C116.461 97.6595 117.02 97.0624 117.706 96.6519C118.392 96.2414 119.154 96.033 119.978 96.033C120.746 96.0394 121.418 96.1913 121.991 96.4859C122.565 96.7806 123.04 97.177 123.417 97.6814C123.794 98.1846 124.081 98.7534 124.269 99.3865C124.458 100.012 124.549 100.667 124.549 101.344C124.541 102.3 124.413 103.127 124.163 103.818ZM124.323 82.0025V90.5073C124.323 90.7955 124.33 91.0323 124.345 91.2125L124.368 91.5007H124.277C124.284 91.493 124.187 91.399 123.982 91.2266C123.787 91.0477 123.454 90.8457 122.987 90.6154C122.526 90.385 121.893 90.183 121.107 90.0041C120.317 89.8304 119.336 89.7377 118.167 89.73C116.612 89.7377 115.186 90.0105 113.889 90.5574C112.592 91.0979 111.475 91.8816 110.524 92.8956C109.574 93.9174 108.843 95.1335 108.321 96.558C107.801 97.9838 107.537 99.5808 107.53 101.344C107.537 103.077 107.786 104.654 108.276 106.078C108.774 107.501 109.483 108.733 110.403 109.761C111.324 110.79 112.433 111.588 113.716 112.151C115.006 112.712 116.439 112.992 118.031 113C118.989 112.992 119.834 112.878 120.573 112.662C121.312 112.445 121.946 112.179 122.482 111.862C123.009 111.539 123.448 111.223 123.787 110.899C124.126 110.582 124.376 110.316 124.534 110.099C124.699 109.885 124.774 109.769 124.774 109.761H124.865L124.843 110.129C124.827 110.366 124.82 110.661 124.82 111.013V112.481H132.153V82.0025H124.323Z" fill="white"/>
<path fill-rule="evenodd" clip-rule="evenodd" d="M90.9491 99.9621L92.8052 93.9603C92.9268 93.5652 93.0459 93.1328 93.1676 92.6657C93.288 92.1908 93.4083 91.7237 93.5222 91.2553C93.6348 90.7805 93.7332 90.3481 93.8238 89.9594C93.9144 89.5708 93.9895 89.2556 94.0348 89.0175L94.1176 88.6507H94.2082L94.2911 89.0175C94.3441 89.2556 94.4114 89.5708 94.502 89.9594L94.8036 91.2553C94.9175 91.7237 95.0379 92.1908 95.1582 92.6657C95.2799 93.1328 95.4003 93.5652 95.5207 93.9603L97.3314 99.9621H90.9491ZM98.3267 81.6143H89.9991L79 112.482H87.1477L89.0931 106.006H99.1875L101.179 112.482H109.326L98.3267 81.6143Z" fill="white"/>
<path fill-rule="evenodd" clip-rule="evenodd" d="M221.835 94.1192C222.265 95.1911 222.476 96.5011 222.484 98.0621V112.481H214.653V99.4441C214.653 98.4147 214.442 97.667 214.012 97.1986C213.583 96.7315 212.933 96.5011 212.073 96.5076C211.259 96.5076 210.549 96.644 209.938 96.9103C209.335 97.1767 208.822 97.5512 208.414 98.026C208 98.5086 207.683 99.0619 207.457 99.7028C207.297 100.134 207.185 100.595 207.11 101.091C207.041 101.582 207.004 102.099 207.004 102.638V112.481H199.173V90.2471H206.687V92.1902C206.679 92.5724 206.665 92.889 206.641 93.1553L206.596 93.5723H206.687C206.958 93.1335 207.306 92.6869 207.728 92.2404C208.15 91.7951 208.664 91.3846 209.26 91.0037C209.863 90.6228 210.564 90.3204 211.364 90.0901C212.172 89.852 213.084 89.7375 214.111 89.7298C215.295 89.722 216.396 89.8674 217.406 90.1544C218.417 90.4349 219.301 90.9034 220.062 91.5506C220.824 92.1902 221.412 93.0472 221.835 94.1192Z" fill="white"/>
<path fill-rule="evenodd" clip-rule="evenodd" d="M171.882 90.9173C171.143 90.5865 170.276 90.306 169.273 90.0834C168.276 89.8517 167.145 89.7372 165.878 89.7295C164.203 89.7372 162.68 89.9457 161.314 90.3626C159.941 90.7808 158.733 91.3638 157.685 92.1037C156.644 92.8462 155.762 93.702 155.052 94.68C154.335 95.6593 153.799 96.7171 153.437 97.8469C153.068 98.9755 152.887 100.141 152.887 101.343C152.887 102.573 153.076 103.768 153.437 104.912C153.807 106.057 154.343 107.113 155.06 108.093C155.776 109.071 156.658 109.928 157.707 110.661C158.757 111.395 159.963 111.964 161.328 112.374C162.694 112.783 164.211 112.993 165.878 112.999C167.183 112.993 168.359 112.863 169.423 112.619C170.479 112.374 171.407 112.072 172.215 111.705C173.021 111.345 173.693 110.986 174.237 110.619C174.779 110.259 175.187 109.956 175.466 109.712C175.744 109.467 175.88 109.337 175.88 109.329L173.029 104.106C173.021 104.114 172.909 104.206 172.674 104.387C172.448 104.56 172.132 104.783 171.724 105.048C171.317 105.314 170.842 105.574 170.298 105.841C169.762 106.107 169.181 106.33 168.562 106.502C167.945 106.682 167.303 106.776 166.647 106.783C165.667 106.776 164.806 106.61 164.075 106.286C163.342 105.969 162.731 105.545 162.249 105.006C161.766 104.473 161.405 103.882 161.169 103.228C160.928 102.581 160.808 101.926 160.808 101.257C160.808 100.588 160.922 99.947 161.155 99.3139C161.389 98.6885 161.736 98.1197 162.196 97.6153C162.664 97.1044 163.244 96.7016 163.939 96.4069C164.633 96.1045 165.447 95.954 166.375 95.9475C167.183 95.954 167.922 96.0685 168.586 96.2847C169.257 96.4931 169.831 96.7454 170.321 97.0259C170.803 97.3064 171.181 97.5509 171.445 97.7671C171.717 97.9833 171.852 98.0914 171.852 98.1056L175.157 93.0972C175.157 93.0907 175.035 92.9685 174.802 92.7446C174.56 92.5219 174.198 92.2401 173.715 91.9107C173.232 91.5787 172.621 91.2493 171.882 90.9173Z" fill="white"/>
<path fill-rule="evenodd" clip-rule="evenodd" d="M147.789 99.8971C148.56 100.293 149.275 100.761 149.917 101.314C150.566 101.869 151.086 102.53 151.478 103.293C151.87 104.048 152.074 104.94 152.081 105.962C152.081 106.919 151.864 107.819 151.433 108.668C151.011 109.51 150.385 110.259 149.563 110.906C148.747 111.553 147.744 112.064 146.568 112.431C145.383 112.805 144.041 112.992 142.531 113C141.362 112.992 140.29 112.877 139.318 112.661C138.345 112.439 137.484 112.166 136.731 111.84C135.968 111.517 135.334 111.193 134.806 110.87C134.286 110.553 133.886 110.279 133.614 110.057C133.344 109.841 133.208 109.725 133.208 109.718L136.556 104.711C136.564 104.725 136.715 104.84 137.009 105.062C137.311 105.286 137.726 105.539 138.27 105.833C138.804 106.128 139.431 106.38 140.148 106.603C140.865 106.825 141.641 106.941 142.487 106.955C142.887 106.955 143.255 106.919 143.61 106.847C143.957 106.775 144.244 106.667 144.455 106.517C144.674 106.358 144.788 106.164 144.794 105.92C144.788 105.645 144.583 105.394 144.191 105.164C143.799 104.94 143.279 104.711 142.629 104.473C141.988 104.236 141.279 103.978 140.502 103.682C139.726 103.395 138.956 103.049 138.178 102.646C137.409 102.243 136.692 101.768 136.051 101.206C135.403 100.645 134.883 99.9833 134.49 99.2125C134.098 98.4443 133.894 97.537 133.886 96.5076C133.894 95.4575 134.142 94.5142 134.626 93.6804C135.115 92.8452 135.795 92.1336 136.662 91.5506C137.537 90.9613 138.548 90.5147 139.71 90.1969C140.871 89.888 142.132 89.7298 143.482 89.7298C144.568 89.7375 145.549 89.8237 146.417 89.9961C147.292 90.1621 148.053 90.377 148.71 90.6293C149.366 90.8738 149.917 91.126 150.355 91.3769C150.792 91.6291 151.124 91.8453 151.342 92.0113C151.561 92.1825 151.675 92.27 151.675 92.2777L149.005 97.5872C149.005 97.5795 148.869 97.4791 148.597 97.3067C148.333 97.1265 147.955 96.9181 147.466 96.68C146.975 96.4432 146.394 96.2347 145.722 96.0546C145.043 95.8744 144.304 95.7818 143.482 95.7741C143.082 95.7741 142.712 95.8101 142.358 95.8821C142.012 95.9542 141.732 96.0687 141.513 96.2283C141.295 96.3853 141.182 96.5951 141.173 96.8537C141.182 97.0905 141.385 97.3067 141.777 97.5087C142.17 97.7172 142.69 97.9257 143.338 98.1406C143.98 98.3567 144.696 98.609 145.466 98.8895C146.243 99.17 147.013 99.5085 147.789 99.8971Z" fill="white"/>
<path fill-rule="evenodd" clip-rule="evenodd" d="M355.655 102.634C355.655 103.454 355.511 104.274 355.225 105.087C354.938 105.9 354.524 106.649 353.996 107.325C353.46 108.002 352.819 108.541 352.065 108.952C351.316 109.362 350.473 109.577 349.544 109.585C348.594 109.577 347.802 109.405 347.16 109.074C346.527 108.743 346.045 108.311 345.728 107.779C345.403 107.253 345.245 106.685 345.245 106.088C345.253 105.303 345.471 104.664 345.893 104.145C346.315 103.634 346.867 103.232 347.56 102.929C348.248 102.634 349.009 102.412 349.831 102.266C350.654 102.13 351.477 102.036 352.291 101.994C353.105 101.958 353.852 101.937 354.524 101.943H355.655V102.634ZM358.945 93.9496C358.242 92.6756 357.216 91.7117 355.874 91.0567C354.524 90.4017 352.886 90.071 350.948 90.071C349.899 90.0787 348.926 90.165 348.043 90.3374C347.154 90.5098 346.368 90.726 345.667 90.986C344.973 91.2369 344.378 91.4956 343.895 91.7478C343.404 92.0064 343.034 92.2162 342.778 92.3873C342.522 92.5611 342.393 92.6537 342.393 92.6614L344.204 95.7267C344.211 95.7125 344.378 95.6044 344.702 95.396C345.034 95.1875 345.486 94.9417 346.067 94.6689C346.656 94.3961 347.326 94.1516 348.096 93.9418C348.865 93.7334 349.695 93.6189 350.585 93.6111C351.558 93.6034 352.427 93.7553 353.174 94.0577C353.928 94.3601 354.524 94.8632 354.953 95.5684C355.384 96.2736 355.602 97.2156 355.61 98.4033V98.792H354.614C353.958 98.7842 353.174 98.8061 352.252 98.8499C351.34 98.8923 350.36 98.9863 349.326 99.1368C348.293 99.2887 347.274 99.5267 346.271 99.842C345.267 100.166 344.354 100.597 343.532 101.152C342.709 101.705 342.053 102.404 341.562 103.246C341.073 104.087 340.825 105.109 340.809 106.303C340.817 107.397 341.042 108.354 341.473 109.182C341.903 110.009 342.49 110.707 343.223 111.261C343.962 111.823 344.792 112.239 345.72 112.528C346.64 112.808 347.598 112.952 348.594 112.952C349.687 112.938 350.646 112.794 351.46 112.506C352.276 112.219 352.969 111.859 353.543 111.434C354.108 111.009 354.577 110.578 354.922 110.154C355.278 109.729 355.527 109.37 355.693 109.082C355.85 108.793 355.927 108.649 355.927 108.635H356.017L355.972 109.124C355.949 109.441 355.935 109.859 355.927 110.362V112.434H360V98.6195C359.992 96.7768 359.645 95.2158 358.945 93.9496Z" fill="white"/>
<path fill-rule="evenodd" clip-rule="evenodd" d="M326.282 105.045C325.92 106.037 325.423 106.858 324.804 107.483C324.177 108.116 323.476 108.585 322.692 108.879C321.907 109.182 321.084 109.326 320.225 109.326C318.948 109.318 317.825 108.995 316.861 108.354C315.886 107.714 315.133 106.814 314.581 105.648C314.038 104.484 313.76 103.103 313.752 101.511C313.76 100.267 313.933 99.165 314.272 98.1947C314.619 97.2309 315.095 96.4099 315.698 95.7407C316.302 95.0716 317.003 94.5684 317.802 94.2235C318.595 93.8697 319.447 93.6972 320.361 93.6972C321.446 93.7049 322.396 93.9276 323.204 94.3664C324.02 94.7988 324.69 95.3881 325.226 96.1229C325.762 96.8629 326.169 97.6903 326.433 98.6117C326.696 99.5331 326.832 100.489 326.832 101.468C326.826 102.857 326.644 104.051 326.282 105.045ZM326.696 81.9548V92.0565C326.705 92.4747 326.72 92.826 326.743 93.1001L326.788 93.5248H326.696C326.696 93.5171 326.622 93.3961 326.471 93.1645C326.32 92.9341 326.071 92.6459 325.738 92.3087C325.399 91.9703 324.962 91.6254 324.412 91.287C323.86 90.9485 323.196 90.6616 322.404 90.4312C321.613 90.1996 320.692 90.0786 319.636 90.0709C318.112 90.0786 316.723 90.345 315.456 90.8842C314.197 91.4169 313.103 92.1865 312.183 93.1863C311.255 94.1862 310.546 95.3881 310.04 96.7908C309.535 98.1947 309.279 99.7698 309.271 101.511C309.279 103.21 309.512 104.763 309.98 106.16C310.44 107.555 311.111 108.757 311.994 109.772C312.869 110.787 313.933 111.57 315.17 112.118C316.415 112.664 317.811 112.945 319.364 112.952C320.496 112.938 321.478 112.802 322.321 112.528C323.159 112.261 323.868 111.923 324.456 111.52C325.037 111.125 325.505 110.722 325.868 110.326C326.221 109.923 326.477 109.585 326.644 109.318C326.802 109.045 326.877 108.909 326.877 108.894H326.968L326.946 109.304C326.93 109.57 326.924 109.923 326.924 110.362V112.434H331.088V81.9548H326.696Z" fill="white"/>
<path fill-rule="evenodd" clip-rule="evenodd" d="M290.569 99.0116C290.788 97.8174 291.211 96.8034 291.844 95.976C292.47 95.1485 293.255 94.5231 294.183 94.0907C295.118 93.6584 296.143 93.4435 297.268 93.4435C298.264 93.4435 299.162 93.6442 299.976 94.0547C300.791 94.4575 301.448 95.0765 301.952 95.8962C302.458 96.7236 302.737 97.7595 302.791 99.0116H290.569ZM306.63 96.3646C306.207 95.1331 305.582 94.047 304.744 93.1127C303.907 92.1772 302.873 91.4501 301.637 90.9238C300.407 90.3923 298.981 90.126 297.359 90.1182C295.722 90.126 294.205 90.3923 292.817 90.9315C291.43 91.4643 290.222 92.2338 289.189 93.2337C288.155 94.2349 287.356 95.4368 286.782 96.8394C286.21 98.2421 285.914 99.8172 285.907 101.558C285.914 103.185 286.21 104.697 286.789 106.078C287.371 107.466 288.2 108.675 289.272 109.704C290.351 110.74 291.625 111.547 293.103 112.122C294.59 112.697 296.235 112.993 298.037 113C299.139 112.993 300.143 112.884 301.063 112.675C301.983 112.467 302.805 112.216 303.53 111.906C304.246 111.596 304.865 111.295 305.363 110.986C305.868 110.676 306.252 110.423 306.51 110.215C306.774 110.006 306.91 109.898 306.91 109.892L305.099 106.825C305.099 106.833 304.985 106.919 304.774 107.092C304.555 107.258 304.246 107.474 303.846 107.726C303.44 107.977 302.965 108.222 302.398 108.474C301.84 108.726 301.213 108.941 300.527 109.107C299.841 109.279 299.101 109.366 298.309 109.373C297.284 109.373 296.31 109.223 295.389 108.919C294.47 108.617 293.654 108.164 292.931 107.567C292.206 106.963 291.625 106.214 291.188 105.307C290.75 104.409 290.494 103.359 290.433 102.163H307.136L307.174 101.818C307.196 101.602 307.211 101.351 307.233 101.069C307.256 100.789 307.271 100.552 307.271 100.35C307.271 98.9254 307.06 97.6025 306.63 96.3646Z" fill="white"/>
<path fill-rule="evenodd" clip-rule="evenodd" d="M339.071 112.434H334.681V90.5883H339.071V112.434Z" fill="white"/>
<path fill-rule="evenodd" clip-rule="evenodd" d="M339.071 86.2285H334.635V81.9549H339.071V86.2285Z" fill="white"/>
<path fill-rule="evenodd" clip-rule="evenodd" d="M281.408 82.002L283.988 112.481H279.552L277.968 93.2696C277.938 92.7948 277.916 92.2981 277.908 91.7872C277.893 91.2699 277.893 90.7809 277.893 90.3266C277.901 89.8737 277.908 89.5069 277.908 89.2187L277.923 88.7798H277.833C277.833 88.7876 277.78 88.9446 277.674 89.2483C277.569 89.5429 277.433 89.9238 277.26 90.3923C277.093 90.8594 276.905 91.3497 276.708 91.8593C276.505 92.3701 276.309 92.8385 276.112 93.2696L269.731 106.999H265.747L259.41 93.2696C259.229 92.845 259.033 92.3779 258.838 91.8593C258.641 91.3497 258.452 90.8452 258.279 90.3627C258.105 89.8878 257.969 89.4928 257.857 89.1762C257.751 88.8661 257.698 88.7013 257.691 88.6936H257.599C257.599 88.7013 257.599 88.8519 257.607 89.1466V90.2842C257.607 90.7513 257.591 91.248 257.585 91.773C257.571 92.2981 257.54 92.7948 257.51 93.2696L255.971 112.481H251.489L254.07 82.002H258.777L266.109 98.4929C266.291 98.9253 266.479 99.3718 266.659 99.8467C266.85 100.314 267.015 100.76 267.173 101.177C267.331 101.594 267.453 101.933 267.55 102.193C267.64 102.451 267.694 102.588 267.694 102.595H267.784C267.784 102.588 267.837 102.451 267.928 102.193C268.025 101.933 268.147 101.594 268.304 101.177C268.462 100.76 268.629 100.314 268.818 99.8467C268.998 99.3718 269.187 98.9253 269.368 98.4929L276.701 82.002H281.408Z" fill="white"/>
<path fill-rule="evenodd" clip-rule="evenodd" d="M239.619 55.8338L238.232 52.3503C249.316 41.9024 242.911 20.9436 225.999 21.6527L225.221 19.6992C245.546 17.8822 256.963 40.7172 239.619 55.8338ZM253.431 27.5644C244.464 13.4426 225.721 13.6614 211.561 18.1293C193.826 23.7258 172.913 41.3053 181.366 62.0274L179.663 64.9987C168.867 38.1294 198.335 17.02 222.796 13.6099C235.201 11.7272 250.231 13.8441 257.749 25.0486C267.434 39.4844 257.152 58.4332 243.971 66.7552L242.385 62.7763C252.921 54.637 261.291 39.9451 253.431 27.5644ZM235.243 44.8519C239.797 38.5695 236.118 28.2941 228.162 27.0806L230.612 33.2278C231.962 34.0398 232.833 35.8851 232.549 38.0895L235.243 44.8519Z" fill="#0E9ED0"/>
<path fill-rule="evenodd" clip-rule="evenodd" d="M210.585 50.2227L213.276 41.5224C213.451 40.9497 213.626 40.323 213.8 39.6461C213.977 38.9564 214.151 38.2795 214.314 37.6013C214.479 36.9129 214.621 36.2875 214.752 35.7226C214.884 35.1602 214.993 34.7021 215.059 34.3572L215.179 33.8258H215.31L215.431 34.3572C215.506 34.7021 215.605 35.1602 215.737 35.7226L216.174 37.6013C216.339 38.2795 216.513 38.9564 216.688 39.6461C216.863 40.323 217.038 40.9497 217.214 41.5224L219.837 50.2227H210.585ZM221.28 23.6249H209.207L193.264 68.3711H205.074L207.896 58.9835H222.528L225.414 68.3711H237.225L221.28 23.6249Z" fill="#0E9ED0"/>
<rect x="79" y="137" width="85.5" height="2" fill="#0E9ED0"/>
<path d="M184.739 135.674C184.688 135.158 184.469 134.758 184.081 134.472C183.693 134.187 183.167 134.044 182.502 134.044C182.05 134.044 181.669 134.108 181.358 134.236C181.047 134.359 180.808 134.532 180.642 134.754C180.48 134.975 180.399 135.227 180.399 135.508C180.391 135.742 180.44 135.947 180.546 136.121C180.657 136.296 180.808 136.447 181 136.575C181.192 136.699 181.413 136.808 181.665 136.901C181.916 136.991 182.185 137.067 182.47 137.131L183.646 137.413C184.217 137.54 184.741 137.711 185.219 137.924C185.696 138.137 186.109 138.399 186.459 138.71C186.808 139.021 187.079 139.388 187.271 139.81C187.467 140.232 187.567 140.715 187.571 141.261C187.567 142.062 187.362 142.756 186.957 143.344C186.557 143.928 185.977 144.382 185.219 144.706C184.464 145.026 183.555 145.185 182.489 145.185C181.433 145.185 180.512 145.023 179.728 144.7C178.948 144.376 178.339 143.896 177.9 143.261C177.465 142.622 177.237 141.832 177.216 140.89H179.894C179.924 141.329 180.05 141.695 180.271 141.989C180.497 142.279 180.798 142.499 181.173 142.648C181.552 142.793 181.98 142.865 182.457 142.865C182.926 142.865 183.333 142.797 183.678 142.661C184.028 142.524 184.298 142.335 184.49 142.092C184.682 141.849 184.778 141.57 184.778 141.254C184.778 140.96 184.69 140.713 184.516 140.513C184.345 140.312 184.094 140.142 183.761 140.001C183.433 139.861 183.031 139.733 182.553 139.618L181.128 139.26C180.024 138.991 179.153 138.572 178.513 138.001C177.874 137.43 177.557 136.661 177.561 135.693C177.557 134.901 177.768 134.208 178.194 133.616C178.624 133.023 179.214 132.561 179.964 132.229C180.714 131.896 181.567 131.73 182.521 131.73C183.493 131.73 184.341 131.896 185.065 132.229C185.794 132.561 186.361 133.023 186.766 133.616C187.17 134.208 187.379 134.894 187.392 135.674H184.739ZM197.519 131.909H200.286V140.411C200.286 141.365 200.058 142.2 199.602 142.916C199.151 143.632 198.518 144.19 197.704 144.591C196.89 144.987 195.942 145.185 194.86 145.185C193.773 145.185 192.823 144.987 192.009 144.591C191.195 144.19 190.562 143.632 190.11 142.916C189.659 142.2 189.433 141.365 189.433 140.411V131.909H192.2V140.174C192.2 140.673 192.309 141.116 192.526 141.504C192.748 141.891 193.059 142.196 193.46 142.418C193.86 142.639 194.327 142.75 194.86 142.75C195.396 142.75 195.863 142.639 196.259 142.418C196.66 142.196 196.969 141.891 197.186 141.504C197.408 141.116 197.519 140.673 197.519 140.174V131.909ZM202.564 145V131.909H207.728C208.717 131.909 209.561 132.086 210.26 132.44C210.963 132.789 211.498 133.286 211.864 133.929C212.235 134.568 212.42 135.32 212.42 136.185C212.42 137.055 212.233 137.803 211.858 138.429C211.483 139.051 210.939 139.528 210.228 139.861C209.52 140.193 208.664 140.359 207.658 140.359H204.2V138.135H207.211C207.739 138.135 208.178 138.062 208.527 137.918C208.877 137.773 209.137 137.555 209.307 137.266C209.482 136.976 209.569 136.616 209.569 136.185C209.569 135.751 209.482 135.384 209.307 135.086C209.137 134.788 208.875 134.562 208.521 134.408C208.172 134.251 207.73 134.172 207.198 134.172H205.331V145H202.564ZM209.633 139.043L212.887 145H209.831L206.648 139.043H209.633ZM216.39 131.909L219.554 141.855H219.675L222.846 131.909H225.914L221.401 145H217.834L213.315 131.909H216.39ZM227.489 145V131.909H236.31V134.191H230.257V137.31H235.857V139.592H230.257V142.718H236.336V145H227.489ZM237.744 131.909H240.844L243.829 137.547H243.957L246.942 131.909H250.042L245.267 140.372V145H242.519V140.372L237.744 131.909ZM258.655 135.674C258.604 135.158 258.385 134.758 257.997 134.472C257.609 134.187 257.083 134.044 256.418 134.044C255.966 134.044 255.585 134.108 255.274 134.236C254.963 134.359 254.724 134.532 254.558 134.754C254.396 134.975 254.315 135.227 254.315 135.508C254.307 135.742 254.356 135.947 254.462 136.121C254.573 136.296 254.724 136.447 254.916 136.575C255.108 136.699 255.329 136.808 255.581 136.901C255.832 136.991 256.101 137.067 256.386 137.131L257.562 137.413C258.133 137.54 258.657 137.711 259.135 137.924C259.612 138.137 260.025 138.399 260.375 138.71C260.724 139.021 260.995 139.388 261.187 139.81C261.383 140.232 261.483 140.715 261.487 141.261C261.483 142.062 261.278 142.756 260.873 143.344C260.473 143.928 259.893 144.382 259.135 144.706C258.381 145.026 257.471 145.185 256.405 145.185C255.349 145.185 254.428 145.023 253.644 144.7C252.864 144.376 252.255 143.896 251.816 143.261C251.381 142.622 251.153 141.832 251.132 140.89H253.81C253.84 141.329 253.966 141.695 254.187 141.989C254.413 142.279 254.714 142.499 255.089 142.648C255.468 142.793 255.896 142.865 256.373 142.865C256.842 142.865 257.249 142.797 257.594 142.661C257.944 142.524 258.214 142.335 258.406 142.092C258.598 141.849 258.694 141.57 258.694 141.254C258.694 140.96 258.606 140.713 258.432 140.513C258.261 140.312 258.01 140.142 257.677 140.001C257.349 139.861 256.947 139.733 256.469 139.618L255.044 139.26C253.94 138.991 253.069 138.572 252.43 138.001C251.79 137.43 251.473 136.661 251.477 135.693C251.473 134.901 251.684 134.208 252.11 133.616C252.54 133.023 253.131 132.561 253.881 132.229C254.631 131.896 255.483 131.73 256.437 131.73C257.409 131.73 258.257 131.896 258.981 132.229C259.71 132.561 260.277 133.023 260.682 133.616C261.086 134.208 261.295 134.894 261.308 135.674H258.655Z" fill="#0E9ED0"/>
<rect x="274.5" y="137" width="85.5" height="2" fill="#0E9ED0"/>
</svg>
