<svg width="440" height="160" viewBox="0 0 440 160" fill="none" xmlns="http://www.w3.org/2000/svg">
<path d="M63.0468 54.4217L101.123 120.031C101.822 121.241 103.128 121.987 104.538 121.987H115.04C118.079 121.987 119.967 118.719 118.454 116.107L74.2732 39.959C72.7599 37.347 68.9575 37.347 67.4442 39.959L63.0598 47.5249C61.8181 49.6609 61.8311 52.2729 63.0598 54.4088L63.0468 54.4217Z" fill="#25D3C2"/>
<path d="M65.5171 76.8878L39.4818 119.774C38.6541 121.138 37.1667 121.974 35.563 121.974H26.5871C23.0303 121.974 20.8316 118.114 22.6553 115.077L53.1009 64.3294C54.8987 61.3442 59.2573 61.37 61.0033 64.3809L65.5689 72.2298C66.4096 73.671 66.3837 75.4466 65.5171 76.8749V76.8878Z" fill="white"/>
<path d="M52.3378 121.987H60.9128C62.5812 121.987 64.1203 121.125 64.9869 119.71L77.0798 99.9457C78.399 97.7969 78.4507 95.1205 77.235 92.9202L73.6394 86.3966C71.8675 83.1798 67.2632 83.1026 65.3749 86.255L48.2508 114.833C46.3625 117.998 48.6518 122 52.3378 122V121.987Z" fill="white"/>
<path d="M82.5765 121.987C81.0245 121.987 79.563 121.215 78.7094 119.928L77.1574 117.612C75.2691 114.807 75.2173 111.153 77.0151 108.284L79.3561 104.539C80.6236 102.519 83.5853 102.545 84.814 104.604L92.4707 117.484C93.6477 119.465 92.212 121.987 89.8969 121.987H82.5765Z" fill="white"/>
<path d="M152.806 119.143C150.31 117.883 147.904 115.708 145.602 112.594C143.235 109.429 142.058 104.964 142.058 99.1994C142.058 93.4349 143.248 89.0215 145.641 85.9334C148.033 82.8967 150.426 80.7994 152.845 79.6285C155.289 78.4833 157.979 77.9043 160.915 77.9043C166.709 77.9043 171.547 80.3748 175.453 85.3157V69.7336C175.453 68.8586 175.737 68.1381 176.319 67.5848C176.901 67.0315 177.625 66.7484 178.505 66.7484C179.384 66.7484 180.109 67.0315 180.665 67.5848C181.221 68.151 181.505 68.8586 181.505 69.7336V117.96C181.505 118.835 181.221 119.555 180.665 120.134C180.096 120.713 179.384 120.996 178.505 120.996C177.625 120.996 176.901 120.713 176.319 120.16C175.737 119.607 175.453 118.873 175.453 117.973V112.929L175.414 112.89C171.96 118.294 167.123 120.996 160.928 120.996C157.94 120.996 155.237 120.379 152.819 119.156L152.806 119.143ZM168.856 84.0419C164.989 82.0217 160.773 81.9317 156.22 83.7588C154.022 84.6338 152.224 86.5639 150.827 89.5362C149.404 92.4827 148.68 95.8411 148.68 99.6111C148.68 105.208 150.077 109.403 152.883 112.182C155.69 114.962 158.962 116.364 162.726 116.364C166.49 116.364 169.568 115.116 171.909 112.633C174.263 110.124 175.453 107.37 175.453 104.359V94.2841C175.453 92.1868 174.858 90.2181 173.681 88.4039C172.504 86.5896 170.9 85.1356 168.869 84.0419H168.856Z" fill="white"/>
<path d="M212.184 83.0125H203.415V109.763C203.415 112.118 203.932 113.881 204.98 115.065C206.027 116.248 207.592 116.827 209.675 116.802C210.852 116.827 211.899 116.622 212.805 116.184C213.684 115.747 214.253 115.528 214.538 115.528C215.197 115.528 215.611 115.824 215.766 116.429C216.09 117.715 215.754 118.616 214.732 119.131C212.533 120.327 209.985 120.932 207.075 120.932C204.165 120.932 201.824 120.044 200.039 118.269C198.229 116.493 197.323 113.765 197.323 110.072V82.9997H191.891C191.037 83.0511 190.43 82.7166 190.08 81.996C189.718 81.2755 189.718 80.5549 190.08 79.8215C190.443 79.1009 191.037 78.7664 191.891 78.8178H197.323V70.1325C197.323 69.2318 197.608 68.4984 198.19 67.9451C198.772 67.3918 199.509 67.1087 200.414 67.1087C201.32 67.1087 202.018 67.3918 202.574 67.9451C203.13 68.5112 203.415 69.2318 203.415 70.1325V78.8178H212.184C212.792 78.8178 213.283 79.0108 213.684 79.3968C214.085 79.7829 214.279 80.2847 214.279 80.9152C214.279 81.5457 214.085 82.0475 213.684 82.4335C213.283 82.8195 212.779 83.0125 212.184 83.0125Z" fill="white"/>
<path d="M255.654 116.724C250.907 119.568 246.393 120.983 242.112 120.983C237.831 120.983 234.184 120.083 231.08 118.281C228.002 116.48 225.661 113.984 224.057 110.806C222.453 107.627 221.651 103.935 221.651 99.727C221.651 95.5194 222.453 91.7365 224.057 88.4682C225.661 85.1999 228.028 82.6136 231.157 80.7222C234.339 78.8436 237.779 77.8914 241.491 77.8914C248.437 77.8914 253.714 79.8987 257.348 83.9132C260.943 87.9792 262.741 93.036 262.741 99.0707C262.741 108.026 260.374 113.907 255.654 116.724ZM242.267 116.686C244.22 116.686 247.001 115.927 250.622 114.396C254.218 112.864 256.016 107.846 256.016 99.3281C256.016 93.5121 254.645 89.2016 251.903 86.3837C249.161 83.6044 245.928 82.2019 242.229 82.2019C236.771 82.2019 233.085 84.1191 231.196 87.9406C229.308 91.7879 228.351 95.5837 228.351 99.3281C228.351 105.388 229.709 109.802 232.425 112.556C235.141 115.309 238.426 116.699 242.267 116.699V116.686Z" fill="white"/>
<path d="M282.788 119.632L269.609 82.1504C269.221 81.0824 269.402 80.0402 270.139 78.998C270.631 78.316 271.329 77.9686 272.234 77.9686C273.968 77.9686 275.08 78.6892 275.571 80.1431L285.621 110.124L297.313 79.2038C297.61 78.3289 298.231 77.8914 299.162 77.8914C300.093 77.8914 300.727 78.316 301.05 79.1652L312.872 110.175L323.206 79.6156C323.62 78.4704 324.344 77.8914 325.391 77.8914C326.439 77.8914 327.163 78.1487 327.577 78.6634C328.185 79.4612 328.327 80.3104 328.03 81.2497L314.527 119.542C314.139 120.495 313.467 120.971 312.51 120.971C311.553 120.971 310.854 120.507 310.492 119.581L298.27 88.6612L286.707 119.62C286.345 120.52 285.685 120.971 284.728 120.971C283.771 120.971 283.125 120.52 282.788 119.62V119.632Z" fill="white"/>
<path d="M339.683 88.7513C338.972 89.6262 338.066 89.7549 336.967 89.1244C336.165 88.6097 336.01 87.8634 336.476 86.9113C337.924 84.132 340.084 81.9317 342.942 80.3233C345.801 78.7149 348.814 77.9043 351.996 77.9043C358.139 77.9043 362.407 79.3711 364.8 82.292C367.193 85.2385 368.383 89.4976 368.383 95.069V117.921C368.383 118.822 368.098 119.555 367.516 120.134C366.934 120.713 366.21 120.996 365.33 120.996C364.451 120.996 363.675 120.7 363.093 120.121C362.498 119.53 362.213 118.809 362.213 117.934V113.147H362.175C358.631 118.384 354.039 121.009 348.387 121.009C342.735 121.009 338.92 119.594 336.941 116.75C334.936 113.932 333.941 111.513 333.941 109.455C333.941 107.396 334.147 105.736 334.561 104.462C334.949 103.24 335.518 102.146 336.294 101.181C336.954 100.306 338.48 99.0064 340.86 97.2951C343.188 95.6609 347.586 94.8374 354.039 94.8374C356.652 94.8374 359.381 95.0304 362.226 95.4165V93.6151C362.226 88.5325 360.894 85.4701 358.23 84.4022C355.514 83.3599 353.199 82.8452 351.272 82.8452C349.344 82.8452 347.223 83.3985 345.141 84.4794C342.994 85.5988 341.183 87.0271 339.709 88.777L339.683 88.7513ZM354.79 98.9935C345.296 98.9935 340.55 102.03 340.55 108.091C340.55 109.892 341.222 111.745 342.567 113.662C343.886 115.579 346.46 116.531 350.302 116.531C352.216 116.531 353.962 116.081 355.527 115.155C357.092 114.241 358.644 112.942 360.183 111.243C361.528 109.738 362.2 107.486 362.2 104.488V99.6497C359.316 99.2123 356.846 98.9935 354.79 98.9935Z" fill="white"/>
<path d="M381.549 105.504V60.7781C381.549 59.8774 381.834 59.1439 382.416 58.5907C382.998 58.0374 383.735 57.7543 384.64 57.7543C385.546 57.7543 386.244 58.0374 386.8 58.5907C387.356 59.1568 387.641 59.8774 387.641 60.7781V106.289C387.641 109.236 387.912 111.655 388.469 113.533C389.012 115.412 390.46 116.544 392.788 116.892C394.521 117.188 395.388 117.754 395.388 118.577C395.388 119.478 395.207 120.109 394.858 120.456C394.47 120.842 394.017 120.996 393.5 120.945C389.102 120.752 386.024 119.504 384.239 117.175C382.454 114.91 381.562 111.011 381.562 105.504H381.549Z" fill="white"/>
<path d="M403.161 105.504V60.7781C403.161 59.8774 403.446 59.1439 404.028 58.5907C404.61 58.0374 405.347 57.7543 406.252 57.7543C407.158 57.7543 407.856 58.0374 408.412 58.5907C408.968 59.1568 409.253 59.8774 409.253 60.7781V106.289C409.253 109.236 409.524 111.655 410.081 113.533C410.624 115.412 412.072 116.544 414.4 116.892C416.133 117.188 417 117.754 417 118.577C417 119.478 416.819 120.109 416.47 120.456C416.082 120.842 415.629 120.996 415.112 120.945C410.714 120.752 407.636 119.504 405.851 117.175C404.066 114.91 403.174 111.011 403.174 105.504H403.161Z" fill="white"/>
</svg>
