<svg width="440" height="160" viewBox="0 0 440 160" fill="none" xmlns="http://www.w3.org/2000/svg">
<path d="M116.593 112.632V71.1837L85.4785 111.314C84.0409 113.088 81.9356 114 79.2145 114C76.4932 114 74.3882 113.088 72.9506 111.314L41.8873 71.1837V112.632H29V54.0572C29 52.0811 29.7188 50.6623 31.2078 49.6996C32.6968 48.7875 34.4938 48.3315 36.7016 48.3315C38.396 48.3315 39.7309 48.5848 40.7064 49.0408C41.682 49.4969 42.6062 50.2569 43.4277 51.321L79.4199 98.4444L115.669 51.321C116.49 50.2569 117.312 49.4969 118.236 49.0408C119.16 48.5848 120.392 48.3315 122.036 48.3315C124.192 48.3315 126.04 48.7875 127.529 49.6996C129.018 50.6116 129.737 52.0811 129.737 54.0572V112.632H116.593Z" fill="white"/>
<path d="M164.343 112.632C159.671 112.632 155.768 112.227 152.636 111.467C149.504 110.707 147.04 109.491 145.14 107.768C143.292 106.096 141.957 103.867 141.187 101.13C140.416 98.3942 140.006 95.0499 140.006 91.0469V84.3076C140.006 80.3049 140.416 76.9099 141.187 74.1736C141.957 71.3868 143.292 69.1574 145.14 67.4852C146.989 65.8131 149.504 64.5464 152.636 63.7863C155.768 63.0263 159.671 62.6209 164.343 62.6209H181.286C186.01 62.6209 189.963 63.0263 193.044 63.7863C196.176 64.5464 198.641 65.8131 200.54 67.5359C202.389 69.2587 203.724 71.4882 204.494 74.2751C205.264 77.0619 205.675 80.4061 205.675 84.4091V91.0469C205.675 95.0499 205.264 98.3942 204.494 101.13C203.724 103.867 202.389 106.096 200.54 107.768C198.692 109.44 196.176 110.707 193.044 111.467C189.912 112.227 186.01 112.632 181.286 112.632H164.343ZM191.76 84.7637C191.76 82.6864 191.606 80.9636 191.247 79.5955C190.888 78.2273 190.272 77.1633 189.399 76.4031C188.475 75.6432 187.242 75.1365 185.599 74.8323C183.956 74.5789 181.903 74.427 179.438 74.427H166.243C163.727 74.427 161.724 74.5789 160.133 74.8323C158.541 75.0857 157.309 75.6432 156.384 76.4031C155.46 77.1633 154.844 78.2273 154.536 79.5955C154.177 80.9636 154.023 82.6864 154.023 84.7637V90.6921C154.023 92.7697 154.177 94.4924 154.536 95.8098C154.895 97.1272 155.512 98.1915 156.384 98.9514C157.309 99.7116 158.541 100.269 160.133 100.573C161.724 100.877 163.778 101.029 166.243 101.029H179.438C181.954 101.029 184.008 100.877 185.599 100.573C187.242 100.269 188.475 99.7116 189.399 98.9514C190.323 98.1915 190.939 97.1272 191.247 95.8098C191.606 94.4924 191.76 92.7697 191.76 90.6921V84.7637Z" fill="white"/>
<path d="M267.647 112.632V84.7637C267.647 82.6864 267.493 80.9636 267.134 79.6462C266.774 78.3285 266.21 77.2645 265.337 76.5046C264.515 75.7444 263.334 75.1872 261.897 74.8831C260.408 74.5789 258.559 74.427 256.352 74.427H241.205C238.997 74.427 237.2 74.5789 235.711 74.8831C234.222 75.1872 233.093 75.7444 232.22 76.5046C231.347 77.2645 230.731 78.3285 230.371 79.6462C230.012 80.9636 229.858 82.6864 229.858 84.7637V112.632H215.944V84.3076C215.944 80.3049 216.355 76.9099 217.125 74.1736C217.895 71.3868 219.23 69.1574 221.078 67.4852C222.926 65.8131 225.442 64.5464 228.574 63.7863C231.706 63.0263 235.608 62.6209 240.281 62.6209H257.224C261.948 62.6209 265.902 63.0263 268.982 63.7863C272.114 64.5464 274.579 65.7625 276.478 67.4852C278.327 69.1574 279.662 71.3868 280.432 74.1736C281.202 76.9607 281.613 80.3049 281.613 84.3076V112.632H267.647Z" fill="white"/>
<path d="M292.344 46.5074H306.565V112.683H292.344V46.5074Z" fill="white"/>
<path d="M322.328 59.7823C320.583 59.7823 319.351 59.4276 318.632 58.7689C317.913 58.1102 317.555 56.9954 317.555 55.526V50.155C317.555 48.6855 317.913 47.6214 318.632 46.9627C319.351 46.304 320.583 46 322.328 46H326.897C328.696 46 329.98 46.304 330.699 46.9627C331.418 47.6214 331.776 48.6855 331.776 50.155V55.526C331.776 56.9954 331.418 58.0595 330.699 58.7689C329.98 59.4276 328.696 59.7823 326.897 59.7823H322.328ZM317.604 112.631V63.9372H331.827V112.631H317.604Z" fill="white"/>
<path d="M392.722 61.9109L410.691 62.1135L385.38 86.5874L411 112.125H393.593L376.496 94.0358L359.092 112.125H342.095" fill="#31CE93"/>
<path d="M364.636 54.6145C364.636 54.1585 364.481 53.7024 364.174 53.3477C363.865 52.9931 363.404 52.7904 362.942 52.7904C362.891 52.7904 362.891 52.7904 362.839 52.7904C362.43 52.7904 361.966 52.9424 361.659 53.2464C361.298 53.5504 361.095 54.0065 361.095 54.4625C361.043 55.4252 361.811 56.2359 362.736 56.2866C363.765 56.2866 364.584 55.5772 364.636 54.6145Z" fill="#31CE93"/>
<path d="M349.747 54.1071C349.747 53.6511 349.592 53.1951 349.283 52.8404C348.976 52.4857 348.515 52.283 348.051 52.283C347.999 52.283 347.999 52.283 347.948 52.283C347.538 52.283 347.077 52.435 346.768 52.739C346.409 53.0431 346.203 53.4991 346.203 53.9551C346.152 54.9179 346.922 55.7286 347.848 55.7792C348.873 55.7792 349.695 55.0699 349.747 54.1071Z" fill="#31CE93"/>
<path d="M349.747 68.802C349.747 68.3459 349.592 67.8899 349.283 67.5352C348.976 67.1805 348.515 66.9778 348.051 66.9778C347.999 66.9778 347.999 66.9778 347.948 66.9778C347.538 66.9778 347.077 67.1298 346.768 67.4339C346.409 67.7379 346.203 68.1939 346.203 68.6499C346.152 69.6127 346.922 70.4234 347.848 70.4741C348.873 70.4741 349.695 69.7647 349.747 68.802Z" fill="#31CE93"/>
<path d="M366.638 56.6921C366.999 56.1348 367.202 55.476 367.202 54.7667C367.254 53.6519 366.896 52.5372 366.125 51.6758C365.355 50.8144 364.277 50.3077 363.146 50.257C361.966 50.2063 360.888 50.561 360.015 51.3211C359.144 52.0811 358.628 53.1452 358.576 54.26C358.476 56.5908 360.272 58.6176 362.685 58.7696C362.788 58.7696 362.839 58.7696 362.942 58.7696C363.558 58.7696 364.226 58.6176 364.79 58.3642L377.421 71.7412L379.218 69.9677L366.638 56.6921ZM362.788 56.2361C361.811 56.1854 361.094 55.3747 361.143 54.412C361.143 53.9559 361.35 53.4999 361.71 53.1959C362.017 52.8919 362.43 52.7399 362.891 52.7399C362.942 52.7399 362.942 52.7399 362.994 52.7399C363.455 52.7399 363.916 52.9425 364.226 53.2972C364.532 53.6519 364.687 54.1079 364.687 54.564C364.584 55.5774 363.765 56.2868 362.788 56.2361Z" fill="#31CE93"/>
<path d="M351.698 70.8796C352.056 70.2715 352.262 69.6128 352.262 68.9541C352.314 67.8394 351.953 66.7246 351.185 65.8632C350.414 65.0018 349.334 64.4951 348.206 64.4445C347.077 64.3938 345.948 64.7485 345.074 65.5085C344.201 66.2686 343.688 67.3327 343.636 68.4474C343.533 70.7782 345.329 72.805 347.744 72.9571C347.848 72.9571 347.899 72.9571 347.999 72.9571C348.615 72.9571 349.283 72.805 349.85 72.5517L362.736 86.182L364.532 84.4086L351.698 70.8796ZM347.899 70.4235C346.922 70.3729 346.203 69.5622 346.255 68.5994C346.255 68.1434 346.461 67.6874 346.819 67.3833C347.128 67.0793 347.538 66.9273 347.999 66.9273C348.051 66.9273 348.051 66.9273 348.103 66.9273C348.567 66.9273 349.028 67.13 349.334 67.4847C349.644 67.8394 349.798 68.2954 349.798 68.7514C349.695 69.7648 348.873 70.4742 347.899 70.4235Z" fill="#31CE93"/>
<path d="M351.698 56.2354C352.056 55.6274 352.262 54.9687 352.314 54.2593C352.365 53.1445 352.004 52.0298 351.237 51.1684C350.466 50.307 349.386 49.8003 348.257 49.7496C347.128 49.699 345.997 50.0537 345.126 50.8137C344.252 51.5738 343.739 52.6378 343.688 53.7526C343.585 56.0834 345.381 58.1102 347.796 58.2623C347.899 58.2623 347.948 58.2623 348.051 58.2623C348.667 58.2623 349.283 58.1102 349.85 57.9076L369.924 79.1384L371.72 77.3649L351.698 56.2354ZM347.899 55.7287C346.922 55.6781 346.203 54.8673 346.255 53.9046C346.255 53.4486 346.461 52.9925 346.819 52.6885C347.128 52.3845 347.538 52.2325 347.999 52.2325C348.051 52.2325 348.051 52.2325 348.103 52.2325C348.567 52.2325 349.028 52.4352 349.334 52.7899C349.644 53.1445 349.798 53.6006 349.798 54.0566C349.695 55.07 348.873 55.7794 347.899 55.7287Z" fill="#31CE93"/>
</svg>
