<svg width="161" height="36" viewBox="0 0 161 36" fill="none" xmlns="http://www.w3.org/2000/svg">
<g clip-path="url(#clip0_252_1272)">
<path d="M47.3397 11.7422C48.6369 11.7422 49.7598 11.9491 50.7083 12.363C51.6708 12.7768 52.4101 13.3642 52.9262 14.1252C53.4423 14.8861 53.7003 15.7872 53.7003 16.8286C53.7003 17.8565 53.4423 18.7576 52.9262 19.5319C52.4101 20.2929 51.6708 20.8803 50.7083 21.2941C49.7598 21.6946 48.6369 21.8949 47.3397 21.8949H44.3895V25.7597H41V11.7422H47.3397ZM47.1514 19.2516C48.1696 19.2516 48.9438 19.0447 49.4739 18.6308C50.0039 18.2036 50.2689 17.6029 50.2689 16.8286C50.2689 16.0409 50.0039 15.4401 49.4739 15.0263C48.9438 14.5991 48.1696 14.3855 47.1514 14.3855H44.3895V19.2516H47.1514Z" fill="#164ED0"/>
<path d="M59.0076 16.408C59.3982 15.8874 59.9212 15.4935 60.5768 15.2265C61.2464 14.9595 62.0135 14.826 62.8784 14.826V17.7097C62.5157 17.683 62.2716 17.6696 62.1461 17.6696C61.2115 17.6696 60.4792 17.9233 59.9491 18.4306C59.4191 18.9245 59.1541 19.6721 59.1541 20.6734V25.7597H55.8901V14.9862H59.0076V16.408Z" fill="#164ED0"/>
<path d="M64.8191 14.9862H68.0832V25.7597H64.8191V14.9862ZM66.4511 13.4844C65.8514 13.4844 65.3631 13.3175 64.9865 12.9837C64.6099 12.65 64.4216 12.2361 64.4216 11.7422C64.4216 11.2482 64.6099 10.8344 64.9865 10.5006C65.3631 10.1669 65.8514 10 66.4511 10C67.0509 10 67.5391 10.1602 67.9158 10.4806C68.2924 10.801 68.4807 11.2015 68.4807 11.6821C68.4807 12.2028 68.2924 12.6366 67.9158 12.9837C67.5391 13.3175 67.0509 13.4844 66.4511 13.4844Z" fill="#164ED0"/>
<path d="M85.5284 14.826C86.9373 14.826 88.0532 15.2265 88.8761 16.0275C89.7131 16.8152 90.1315 18.0034 90.1315 19.592V25.7597H86.8675V20.0726C86.8675 19.2182 86.6792 18.5841 86.3026 18.1702C85.9399 17.743 85.4168 17.5294 84.7334 17.5294C83.9662 17.5294 83.3594 17.7697 82.913 18.2503C82.4667 18.7176 82.2435 19.4185 82.2435 20.353V25.7597H78.9795V20.0726C78.9795 18.3772 78.2681 17.5294 76.8454 17.5294C76.0921 17.5294 75.4923 17.7697 75.046 18.2503C74.5996 18.7176 74.3764 19.4185 74.3764 20.353V25.7597H71.1124V14.9862H74.23V16.2278C74.6484 15.7739 75.1576 15.4268 75.7573 15.1865C76.3711 14.9462 77.0406 14.826 77.766 14.826C78.561 14.826 79.2794 14.9796 79.921 15.2866C80.5627 15.5803 81.0788 16.0142 81.4694 16.5882C81.9297 16.0275 82.5085 15.5937 83.206 15.2866C83.9174 14.9796 84.6915 14.826 85.5284 14.826Z" fill="#164ED0"/>
<path d="M98.8499 23.4168C99.4358 23.4168 99.9519 23.3367 100.398 23.1765C100.859 23.0029 101.284 22.7359 101.675 22.3755L103.411 24.1777C102.351 25.3392 100.803 25.9199 98.7662 25.9199C97.4969 25.9199 96.374 25.6863 95.3976 25.219C94.4212 24.7384 93.668 24.0776 93.1379 23.2366C92.6078 22.3955 92.3428 21.441 92.3428 20.373C92.3428 19.3183 92.6009 18.3705 93.117 17.5294C93.647 16.675 94.3654 16.0142 95.2721 15.5469C96.1927 15.0663 97.2249 14.826 98.3687 14.826C99.4427 14.826 100.419 15.0463 101.298 15.4869C102.177 15.9141 102.874 16.5415 103.39 17.3692C103.92 18.1836 104.185 19.1515 104.185 20.2729L95.8579 21.8148C96.095 22.3488 96.4647 22.7493 96.9668 23.0163C97.4829 23.2833 98.1106 23.4168 98.8499 23.4168ZM98.3687 17.189C97.5457 17.189 96.8762 17.4427 96.3601 17.95C95.844 18.4573 95.5719 19.1581 95.5441 20.0526L101.026 19.0313C100.872 18.4706 100.559 18.0234 100.084 17.6896C99.6101 17.3559 99.0382 17.189 98.3687 17.189Z" fill="#164ED0"/>
<path d="M124.503 24.5582C123.805 25.0121 122.927 25.3659 121.867 25.6195C120.82 25.8732 119.705 26 118.519 26C117.04 26 115.785 25.8265 114.753 25.4794C113.721 25.1189 112.939 24.625 112.409 23.9975C111.879 23.3567 111.614 22.6291 111.614 21.8148C111.614 21.0672 111.831 20.4064 112.263 19.8323C112.695 19.2583 113.288 18.8311 114.041 18.5507C113.469 18.257 113.023 17.8565 112.702 17.3492C112.395 16.8419 112.242 16.2745 112.242 15.6471C112.242 14.8861 112.486 14.1919 112.974 13.5645C113.463 12.937 114.202 12.4364 115.192 12.0626C116.183 11.6888 117.396 11.5019 118.833 11.5019C119.781 11.5019 120.709 11.5953 121.616 11.7822C122.522 11.9558 123.31 12.1961 123.98 12.5031L123.038 14.9862C121.755 14.4122 120.395 14.1252 118.958 14.1252C117.87 14.1252 117.047 14.2854 116.489 14.6058C115.945 14.9128 115.673 15.3333 115.673 15.8673C115.673 16.3613 115.855 16.7418 116.217 17.0088C116.594 17.2624 117.159 17.3893 117.912 17.3893H121.908V19.9525H117.703C116.852 19.9525 116.196 20.0926 115.736 20.373C115.276 20.6533 115.046 21.0605 115.046 21.5945C115.046 22.1552 115.339 22.5958 115.924 22.9162C116.524 23.2232 117.438 23.3767 118.665 23.3767C119.53 23.3767 120.395 23.2699 121.26 23.0563C122.125 22.8294 122.857 22.5157 123.457 22.1152L124.503 24.5582Z" fill="#164ED0"/>
<path d="M137.541 14.9862V25.7597H134.424V24.5182C133.615 25.4527 132.443 25.9199 130.909 25.9199C129.849 25.9199 128.886 25.693 128.021 25.2391C127.17 24.7852 126.501 24.1377 126.013 23.2966C125.524 22.4556 125.28 21.481 125.28 20.373C125.28 19.2649 125.524 18.2904 126.013 17.4493C126.501 16.6083 127.17 15.9608 128.021 15.5069C128.886 15.053 129.849 14.826 130.909 14.826C132.345 14.826 133.468 15.2599 134.277 16.1277V14.9862H137.541ZM131.474 23.3567C132.297 23.3567 132.98 23.0897 133.524 22.5557C134.068 22.0084 134.34 21.2808 134.34 20.373C134.34 19.4652 134.068 18.7443 133.524 18.2103C132.98 17.6629 132.297 17.3893 131.474 17.3893C130.637 17.3893 129.946 17.6629 129.402 18.2103C128.858 18.7443 128.586 19.4652 128.586 20.373C128.586 21.2808 128.858 22.0084 129.402 22.5557C129.946 23.0897 130.637 23.3567 131.474 23.3567Z" fill="#164ED0"/>
<path d="M143.681 16.408C144.071 15.8874 144.594 15.4935 145.25 15.2265C145.92 14.9595 146.687 14.826 147.552 14.826V17.7097C147.189 17.683 146.945 17.6696 146.819 17.6696C145.885 17.6696 145.152 17.9233 144.622 18.4306C144.092 18.9245 143.827 19.6721 143.827 20.6734V25.7597H140.563V14.9862H143.681V16.408Z" fill="#164ED0"/>
<path d="M156.334 14.826C157.729 14.826 158.852 15.2265 159.703 16.0275C160.568 16.8285 161 18.0167 161 19.592V25.7597H157.736V20.0726C157.736 19.2182 157.541 18.5841 157.15 18.1702C156.76 17.743 156.195 17.5294 155.455 17.5294C154.632 17.5294 153.977 17.7764 153.489 18.2704C153 18.751 152.756 19.4719 152.756 20.4331V25.7597H149.492V14.9862H152.61V16.2478C153.042 15.7939 153.579 15.4468 154.221 15.2065C154.863 14.9529 155.567 14.826 156.334 14.826Z" fill="#164ED0"/>
<path d="M17.8966 0.384277C25.079 0.384277 30.8954 6.22352 30.8954 13.4341C30.8954 20.6447 25.0679 26.4839 17.8966 26.4839H14.3274C20.6395 26.4839 27.855 19.395 25.3103 11.2554C25.2883 11.1559 25.2552 11.0564 25.2222 10.9568C25.1671 10.7688 25.101 10.603 25.0239 10.426C23.8452 7.65015 21.1022 5.68162 17.9076 5.68162H7.45351H7.14506C6.46207 5.68162 5.90026 6.2014 5.83417 6.87601C5.86722 2.69564 7.90516 0.384277 12.0802 0.384277H17.8966Z" fill="#266BD7"/>
<path d="M25.3103 11.2554C27.855 19.395 20.6506 26.4839 14.3274 26.4839L13.1929 26.4839L5.81224 34.1258L5.03011 34.9221C4.55642 35.3976 3.89547 35.6962 3.16842 35.6962C1.71432 35.6962 0.535614 34.5129 0.535614 33.0531V28.4303C0.535614 29.6136 1.78041 30.6974 3.48788 28.928L10.9457 21.1976H17.8857C18.0289 21.1976 18.1721 21.1866 18.3043 21.1866C22.3692 20.9654 25.6078 17.5813 25.6078 13.4451C25.6299 12.6821 25.5196 11.9411 25.3103 11.2554Z" fill="#266BD7"/>
<path d="M5.82435 0.384277H12.0814C7.90635 0.384277 5.86841 2.69564 5.83536 6.87601C5.82435 6.92025 5.82435 6.96449 5.82435 7.00872V24.8472C5.82435 25.2232 6.12178 25.5218 6.49632 25.5218C6.68359 25.5218 6.83781 25.4444 6.95899 25.3338L3.49999 28.9169C1.79252 30.6864 0.547726 29.6026 0.547726 28.4193V3.03848C0.547726 1.57867 1.72643 0.395337 3.18053 0.395337H5.82435V0.384277Z" fill="#266BD7"/>
<path d="M17.8966 0.384277C25.079 0.384277 30.8954 6.22352 30.8954 13.4341C30.8954 20.6447 25.0679 26.4839 17.8966 26.4839H14.3274C20.6395 26.4839 27.855 19.395 25.3103 11.2554C25.2883 11.1559 25.2552 11.0564 25.2222 10.9568C25.1671 10.7688 25.101 10.603 25.0239 10.426C23.8452 7.65015 21.1022 5.68162 17.9076 5.68162H7.45351H7.14506C6.46207 5.68162 5.90026 6.2014 5.83417 6.87601C5.86722 2.69564 7.90516 0.384277 12.0802 0.384277H17.8966Z" fill="url(#paint0_linear_252_1272)"/>
<path d="M17.8966 0.384277C25.079 0.384277 30.8954 6.22352 30.8954 13.4341C30.8954 20.6447 25.0679 26.4839 17.8966 26.4839H14.3274C20.6395 26.4839 27.855 19.395 25.3103 11.2554C25.2883 11.1559 25.2552 11.0564 25.2222 10.9568C25.1671 10.7688 25.101 10.603 25.0239 10.426C23.8452 7.65015 21.1022 5.68162 17.9076 5.68162H7.45351H7.14506C6.46207 5.68162 5.90026 6.2014 5.83417 6.87601C5.86722 2.69564 7.90516 0.384277 12.0802 0.384277H17.8966Z" fill="url(#paint1_linear_252_1272)"/>
<path d="M17.8966 0.384277C25.079 0.384277 30.8954 6.22352 30.8954 13.4341C30.8954 20.6447 25.0679 26.4839 17.8966 26.4839H14.3274C20.6395 26.4839 27.855 19.395 25.3103 11.2554C25.2883 11.1559 25.2552 11.0564 25.2222 10.9568C25.1671 10.7688 25.101 10.603 25.0239 10.426C23.8452 7.65015 21.1022 5.68162 17.9076 5.68162H7.45351H7.14506C6.46207 5.68162 5.90026 6.2014 5.83417 6.87601C5.86722 2.69564 7.90516 0.384277 12.0802 0.384277H17.8966Z" fill="url(#paint2_linear_252_1272)"/>
<path d="M17.8966 0.384277C25.079 0.384277 30.8954 6.22352 30.8954 13.4341C30.8954 20.6447 25.0679 26.4839 17.8966 26.4839H14.3274C20.6395 26.4839 27.855 19.395 25.3103 11.2554C25.2883 11.1559 25.2552 11.0564 25.2222 10.9568C25.1671 10.7688 25.101 10.603 25.0239 10.426C23.8452 7.65015 21.1022 5.68162 17.9076 5.68162H7.45351H7.14506C6.46207 5.68162 5.90026 6.2014 5.83417 6.87601C5.86722 2.69564 7.90516 0.384277 12.0802 0.384277H17.8966Z" fill="url(#paint3_linear_252_1272)"/>
<path d="M17.8966 0.384277C25.079 0.384277 30.8954 6.22352 30.8954 13.4341C30.8954 20.6447 25.0679 26.4839 17.8966 26.4839H14.3274C20.6395 26.4839 27.855 19.395 25.3103 11.2554C25.2883 11.1559 25.2552 11.0564 25.2222 10.9568C25.1671 10.7688 25.101 10.603 25.0239 10.426C23.8452 7.65015 21.1022 5.68162 17.9076 5.68162H7.45351H7.14506C6.46207 5.68162 5.90026 6.2014 5.83417 6.87601C5.86722 2.69564 7.90516 0.384277 12.0802 0.384277H17.8966Z" fill="url(#paint4_linear_252_1272)"/>
<path d="M25.3103 11.2554C27.855 19.395 20.6506 26.4839 14.3274 26.4839L13.1929 26.4839L5.81224 34.1258L5.03011 34.9221C4.55642 35.3976 3.89547 35.6962 3.16842 35.6962C1.71432 35.6962 0.535614 34.5129 0.535614 33.0531V28.4303C0.535614 29.6136 1.78041 30.6974 3.48788 28.928L10.9457 21.1976H17.8857C18.0289 21.1976 18.1721 21.1866 18.3043 21.1866C22.3692 20.9654 25.6078 17.5813 25.6078 13.4451C25.6299 12.6821 25.5196 11.9411 25.3103 11.2554Z" fill="url(#paint5_linear_252_1272)"/>
<path d="M25.3103 11.2554C27.855 19.395 20.6506 26.4839 14.3274 26.4839L13.1929 26.4839L5.81224 34.1258L5.03011 34.9221C4.55642 35.3976 3.89547 35.6962 3.16842 35.6962C1.71432 35.6962 0.535614 34.5129 0.535614 33.0531V28.4303C0.535614 29.6136 1.78041 30.6974 3.48788 28.928L10.9457 21.1976H17.8857C18.0289 21.1976 18.1721 21.1866 18.3043 21.1866C22.3692 20.9654 25.6078 17.5813 25.6078 13.4451C25.6299 12.6821 25.5196 11.9411 25.3103 11.2554Z" fill="url(#paint6_linear_252_1272)"/>
<path d="M25.3103 11.2554C27.855 19.395 20.6506 26.4839 14.3274 26.4839L13.1929 26.4839L5.81224 34.1258L5.03011 34.9221C4.55642 35.3976 3.89547 35.6962 3.16842 35.6962C1.71432 35.6962 0.535614 34.5129 0.535614 33.0531V28.4303C0.535614 29.6136 1.78041 30.6974 3.48788 28.928L10.9457 21.1976H17.8857C18.0289 21.1976 18.1721 21.1866 18.3043 21.1866C22.3692 20.9654 25.6078 17.5813 25.6078 13.4451C25.6299 12.6821 25.5196 11.9411 25.3103 11.2554Z" fill="url(#paint7_linear_252_1272)"/>
<path d="M25.3103 11.2554C27.855 19.395 20.6506 26.4839 14.3274 26.4839L13.1929 26.4839L5.81224 34.1258L5.03011 34.9221C4.55642 35.3976 3.89547 35.6962 3.16842 35.6962C1.71432 35.6962 0.535614 34.5129 0.535614 33.0531V28.4303C0.535614 29.6136 1.78041 30.6974 3.48788 28.928L10.9457 21.1976H17.8857C18.0289 21.1976 18.1721 21.1866 18.3043 21.1866C22.3692 20.9654 25.6078 17.5813 25.6078 13.4451C25.6299 12.6821 25.5196 11.9411 25.3103 11.2554Z" fill="url(#paint8_linear_252_1272)"/>
<path d="M5.82435 0.384277H12.0814C7.90635 0.384277 5.86841 2.69564 5.83536 6.87601C5.82435 6.92025 5.82435 6.96449 5.82435 7.00872V24.8472C5.82435 25.2232 6.12178 25.5218 6.49632 25.5218C6.68359 25.5218 6.83781 25.4444 6.95899 25.3338L3.49999 28.9169C1.79252 30.6864 0.547726 29.6026 0.547726 28.4193V3.03848C0.547726 1.57867 1.72643 0.395337 3.18053 0.395337H5.82435V0.384277Z" fill="url(#paint9_linear_252_1272)"/>
<path d="M5.82435 0.384277H12.0814C7.90635 0.384277 5.86841 2.69564 5.83536 6.87601C5.82435 6.92025 5.82435 6.96449 5.82435 7.00872V24.8472C5.82435 25.2232 6.12178 25.5218 6.49632 25.5218C6.68359 25.5218 6.83781 25.4444 6.95899 25.3338L3.49999 28.9169C1.79252 30.6864 0.547726 29.6026 0.547726 28.4193V3.03848C0.547726 1.57867 1.72643 0.395337 3.18053 0.395337H5.82435V0.384277Z" fill="url(#paint10_linear_252_1272)"/>
<path d="M5.82435 0.384277H12.0814C7.90635 0.384277 5.86841 2.69564 5.83536 6.87601C5.82435 6.92025 5.82435 6.96449 5.82435 7.00872V24.8472C5.82435 25.2232 6.12178 25.5218 6.49632 25.5218C6.68359 25.5218 6.83781 25.4444 6.95899 25.3338L3.49999 28.9169C1.79252 30.6864 0.547726 29.6026 0.547726 28.4193V3.03848C0.547726 1.57867 1.72643 0.395337 3.18053 0.395337H5.82435V0.384277Z" fill="url(#paint11_linear_252_1272)"/>
<path d="M5.82435 0.384277H12.0814C7.90635 0.384277 5.86841 2.69564 5.83536 6.87601C5.82435 6.92025 5.82435 6.96449 5.82435 7.00872V24.8472C5.82435 25.2232 6.12178 25.5218 6.49632 25.5218C6.68359 25.5218 6.83781 25.4444 6.95899 25.3338L3.49999 28.9169C1.79252 30.6864 0.547726 29.6026 0.547726 28.4193V3.03848C0.547726 1.57867 1.72643 0.395337 3.18053 0.395337H5.82435V0.384277Z" fill="url(#paint12_linear_252_1272)"/>
<path d="M5.82435 0.384277H12.0814C7.90635 0.384277 5.86841 2.69564 5.83536 6.87601C5.82435 6.92025 5.82435 6.96449 5.82435 7.00872V24.8472C5.82435 25.2232 6.12178 25.5218 6.49632 25.5218C6.68359 25.5218 6.83781 25.4444 6.95899 25.3338L3.49999 28.9169C1.79252 30.6864 0.547726 29.6026 0.547726 28.4193V3.03848C0.547726 1.57867 1.72643 0.395337 3.18053 0.395337H5.82435V0.384277Z" fill="url(#paint13_linear_252_1272)"/>
<path d="M5.82435 0.384277H12.0814C7.90635 0.384277 5.86841 2.69564 5.83536 6.87601C5.82435 6.92025 5.82435 6.96449 5.82435 7.00872V24.8472C5.82435 25.2232 6.12178 25.5218 6.49632 25.5218C6.68359 25.5218 6.83781 25.4444 6.95899 25.3338L3.49999 28.9169C1.79252 30.6864 0.547726 29.6026 0.547726 28.4193V3.03848C0.547726 1.57867 1.72643 0.395337 3.18053 0.395337H5.82435V0.384277Z" fill="url(#paint14_linear_252_1272)"/>
<path d="M5.82435 0.384277H12.0814C7.90635 0.384277 5.86841 2.69564 5.83536 6.87601C5.82435 6.92025 5.82435 6.96449 5.82435 7.00872V24.8472C5.82435 25.2232 6.12178 25.5218 6.49632 25.5218C6.68359 25.5218 6.83781 25.4444 6.95899 25.3338L3.49999 28.9169C1.79252 30.6864 0.547726 29.6026 0.547726 28.4193V3.03848C0.547726 1.57867 1.72643 0.395337 3.18053 0.395337H5.82435V0.384277Z" fill="url(#paint15_linear_252_1272)"/>
<path d="M5.82435 0.384277H12.0814C7.90635 0.384277 5.86841 2.69564 5.83536 6.87601C5.82435 6.92025 5.82435 6.96449 5.82435 7.00872V24.8472C5.82435 25.2232 6.12178 25.5218 6.49632 25.5218C6.68359 25.5218 6.83781 25.4444 6.95899 25.3338L3.49999 28.9169C1.79252 30.6864 0.547726 29.6026 0.547726 28.4193V3.03848C0.547726 1.57867 1.72643 0.395337 3.18053 0.395337H5.82435V0.384277Z" fill="url(#paint16_linear_252_1272)"/>
<path d="M5.82435 0.384277H12.0814C7.90635 0.384277 5.86841 2.69564 5.83536 6.87601C5.82435 6.92025 5.82435 6.96449 5.82435 7.00872V24.8472C5.82435 25.2232 6.12178 25.5218 6.49632 25.5218C6.68359 25.5218 6.83781 25.4444 6.95899 25.3338L3.49999 28.9169C1.79252 30.6864 0.547726 29.6026 0.547726 28.4193V3.03848C0.547726 1.57867 1.72643 0.395337 3.18053 0.395337H5.82435V0.384277Z" fill="url(#paint17_linear_252_1272)"/>
<path d="M5.82435 0.384277H12.0814C7.90635 0.384277 5.86841 2.69564 5.83536 6.87601C5.82435 6.92025 5.82435 6.96449 5.82435 7.00872V24.8472C5.82435 25.2232 6.12178 25.5218 6.49632 25.5218C6.68359 25.5218 6.83781 25.4444 6.95899 25.3338L3.49999 28.9169C1.79252 30.6864 0.547726 29.6026 0.547726 28.4193V3.03848C0.547726 1.57867 1.72643 0.395337 3.18053 0.395337H5.82435V0.384277Z" fill="url(#paint18_linear_252_1272)"/>
<path d="M12.0802 0.384277C8.79745 1.10312 8.03735 3.61356 8.04836 5.68162L7.45351 5.68162H7.14506C6.46207 5.68162 5.90026 6.2014 5.83417 6.87601C5.86722 2.69565 7.89414 0.384277 12.0802 0.384277Z" fill="url(#paint19_linear_252_1272)"/>
<path d="M6.95899 25.3338L3.49999 28.9169C2.27723 30.1777 1.29583 29.9786 0.84418 29.3372C1.09755 29.6469 1.70342 29.857 2.23218 29.492C3.33377 28.74 4.69975 26.1411 5.83438 23.5311V24.8361C5.83438 25.2121 6.13181 25.5107 6.50635 25.5107C6.68261 25.5218 6.83781 25.4554 6.95899 25.3338Z" fill="url(#paint20_linear_252_1272)"/>
<path d="M12.0802 0.384277C8.79745 1.10312 8.03735 3.61356 8.04836 5.68162L7.45351 5.68162H7.14506C6.46207 5.68162 5.90026 6.2014 5.83417 6.87601C5.86722 2.69565 7.89414 0.384277 12.0802 0.384277Z" fill="url(#paint21_linear_252_1272)"/>
<path d="M14.3387 26.4839C15.0327 26.4839 21.499 25.4001 22.9311 19.3176C24.5835 17.8909 25.641 15.7897 25.641 13.4341C25.641 12.6821 25.5308 11.9411 25.3215 11.2554C27.8552 19.395 20.6508 26.4839 14.3387 26.4839Z" fill="url(#paint22_linear_252_1272)"/>
<path d="M6.95899 25.3338L3.49999 28.9169C2.27723 30.1777 1.29583 29.9786 0.84418 29.3372C1.09755 29.6469 1.70342 29.857 2.23218 29.492C3.33377 28.74 4.69975 26.1411 5.83438 23.5311V24.8361C5.83438 25.2121 6.13181 25.5107 6.50635 25.5107C6.68261 25.5218 6.83781 25.4554 6.95899 25.3338Z" fill="url(#paint23_linear_252_1272)"/>
<path d="M12.0802 0.384277C8.79745 1.10312 8.03735 3.61356 8.04836 5.68162L7.45351 5.68162H7.14506C6.46207 5.68162 5.90026 6.2014 5.83417 6.87601C5.86722 2.69565 7.89414 0.384277 12.0802 0.384277Z" fill="url(#paint24_linear_252_1272)"/>
<path d="M6.95899 25.3338L3.49999 28.9169C2.27723 30.1777 1.29583 29.9786 0.84418 29.3372C1.09755 29.6469 1.70342 29.857 2.23218 29.492C3.33377 28.74 4.69975 26.1411 5.83438 23.5311V24.8361C5.83438 25.2121 6.13181 25.5107 6.50635 25.5107C6.68261 25.5218 6.83781 25.4554 6.95899 25.3338Z" fill="url(#paint25_linear_252_1272)"/>
<path d="M17.8966 0.384277C25.079 0.384277 30.8954 6.22352 30.8954 13.4341C30.8954 20.6447 25.0679 26.4839 17.8966 26.4839H14.3274C20.6395 26.4839 27.855 19.395 25.3103 11.2554C25.2883 11.1559 25.2552 11.0564 25.2222 10.9568C25.1671 10.7688 25.101 10.603 25.0239 10.426C23.8452 7.65015 21.1022 5.68162 17.9076 5.68162H7.45351H7.14506C6.46207 5.68162 5.90026 6.2014 5.83417 6.87601C5.86722 2.69564 7.90516 0.384277 12.0802 0.384277H17.8966Z" fill="url(#paint26_linear_252_1272)"/>
<path d="M17.8966 0.384277C25.079 0.384277 30.8954 6.22352 30.8954 13.4341C30.8954 20.6447 25.0679 26.4839 17.8966 26.4839H14.3274C20.6395 26.4839 27.855 19.395 25.3103 11.2554C25.2883 11.1559 25.2552 11.0564 25.2222 10.9568C25.1671 10.7688 25.101 10.603 25.0239 10.426C23.8452 7.65015 21.1022 5.68162 17.9076 5.68162H7.45351H7.14506C6.46207 5.68162 5.90026 6.2014 5.83417 6.87601C5.86722 2.69564 7.90516 0.384277 12.0802 0.384277H17.8966Z" fill="url(#paint27_linear_252_1272)"/>
<path d="M25.3103 11.2554C27.855 19.395 20.6506 26.4839 14.3274 26.4839L13.1929 26.4839L5.81224 34.1258L5.03011 34.9221C4.55642 35.3976 3.89547 35.6962 3.16842 35.6962C1.71432 35.6962 0.535614 34.5129 0.535614 33.0531V28.4303C0.535614 29.6136 1.78041 30.6974 3.48788 28.928L10.9457 21.1976H17.8857C18.0289 21.1976 18.1721 21.1866 18.3043 21.1866C22.3692 20.9654 25.6078 17.5813 25.6078 13.4451C25.6299 12.6821 25.5196 11.9411 25.3103 11.2554Z" fill="url(#paint28_linear_252_1272)"/>
<path d="M25.3103 11.2554C27.855 19.395 20.6506 26.4839 14.3274 26.4839L13.1929 26.4839L5.81224 34.1258L5.03011 34.9221C4.55642 35.3976 3.89547 35.6962 3.16842 35.6962C1.71432 35.6962 0.535614 34.5129 0.535614 33.0531V28.4303C0.535614 29.6136 1.78041 30.6974 3.48788 28.928L10.9457 21.1976H17.8857C18.0289 21.1976 18.1721 21.1866 18.3043 21.1866C22.3692 20.9654 25.6078 17.5813 25.6078 13.4451C25.6299 12.6821 25.5196 11.9411 25.3103 11.2554Z" fill="url(#paint29_linear_252_1272)"/>
<path d="M25.3103 11.2554C27.855 19.395 20.6506 26.4839 14.3274 26.4839L13.1929 26.4839L5.81224 34.1258L5.03011 34.9221C4.55642 35.3976 3.89547 35.6962 3.16842 35.6962C1.71432 35.6962 0.535614 34.5129 0.535614 33.0531V28.4303C0.535614 29.6136 1.78041 30.6974 3.48788 28.928L10.9457 21.1976H17.8857C18.0289 21.1976 18.1721 21.1866 18.3043 21.1866C22.3692 20.9654 25.6078 17.5813 25.6078 13.4451C25.6299 12.6821 25.5196 11.9411 25.3103 11.2554Z" fill="url(#paint30_linear_252_1272)"/>
<path d="M5.82435 0.384277H12.0814C7.90635 0.384277 5.86841 2.69564 5.83536 6.87601C5.82435 6.92025 5.82435 6.96449 5.82435 7.00872V24.8472C5.82435 25.2232 6.12178 25.5218 6.49632 25.5218C6.68359 25.5218 6.83781 25.4444 6.95899 25.3338L3.49999 28.9169C1.79252 30.6864 0.547726 29.6026 0.547726 28.4193V3.03848C0.547726 1.57867 1.72643 0.395337 3.18053 0.395337H5.82435V0.384277Z" fill="url(#paint31_linear_252_1272)"/>
<path d="M5.82435 0.384277H12.0814C7.90635 0.384277 5.86841 2.69564 5.83536 6.87601C5.82435 6.92025 5.82435 6.96449 5.82435 7.00872V24.8472C5.82435 25.2232 6.12178 25.5218 6.49632 25.5218C6.68359 25.5218 6.83781 25.4444 6.95899 25.3338L3.49999 28.9169C1.79252 30.6864 0.547726 29.6026 0.547726 28.4193V3.03848C0.547726 1.57867 1.72643 0.395337 3.18053 0.395337H5.82435V0.384277Z" fill="url(#paint32_linear_252_1272)"/>
<path d="M14.3387 26.4839C15.0327 26.4839 21.499 25.4001 22.9311 19.3176C24.5835 17.8909 25.641 15.7897 25.641 13.4341C25.641 12.6821 25.5308 11.9411 25.3215 11.2554C27.8552 19.395 20.6508 26.4839 14.3387 26.4839Z" fill="url(#paint33_linear_252_1272)"/>
<path d="M14.3387 26.4839H13.2039C13.2039 26.4839 17.467 25.5771 19.0754 21.0981C22.7767 20.5341 25.6298 17.3048 25.6298 13.4341C25.6298 12.6821 25.5196 11.9411 25.3103 11.2554C27.855 19.395 20.6508 26.4839 14.3387 26.4839Z" fill="url(#paint34_linear_252_1272)"/>
<path d="M11.1548 5.68162L7.45351 5.68162H7.14506C6.46207 5.68162 5.90026 6.2014 5.83417 6.87601C5.86722 2.69564 7.90516 0.384277 12.0802 0.384277H13.1818C11.6175 1.86621 11.1879 3.93427 11.1548 5.68162Z" fill="url(#paint35_linear_252_1272)"/>
<path d="M0.546628 28.4304V25.3227C2.4634 24.6592 4.56744 23.4758 5.82325 21.4188V24.8582C5.82325 25.2343 6.12068 25.5329 6.49522 25.5329C6.68249 25.5329 6.83671 25.4554 6.95789 25.3448L3.49889 28.928C1.79143 30.6975 0.546628 29.6026 0.546628 28.4304Z" fill="url(#paint36_linear_252_1272)"/>
</g>
<defs>
<linearGradient id="paint0_linear_252_1272" x1="-196.896" y1="-12.0397" x2="-129.609" y2="152.448" gradientUnits="userSpaceOnUse">
<stop stop-color="#262FD6"/>
<stop offset="1" stop-color="#2657D7" stop-opacity="0"/>
</linearGradient>
<linearGradient id="paint1_linear_252_1272" x1="-104.757" y1="-9.38191" x2="-71.8405" y2="99.4613" gradientUnits="userSpaceOnUse">
<stop stop-color="#262FD6"/>
<stop offset="1" stop-color="#2657D7" stop-opacity="0"/>
</linearGradient>
<linearGradient id="paint2_linear_252_1272" x1="440.527" y1="48.1158" x2="317.138" y2="-176.973" gradientUnits="userSpaceOnUse">
<stop stop-color="#262FD6"/>
<stop offset="1" stop-color="#2657D7" stop-opacity="0"/>
</linearGradient>
<linearGradient id="paint3_linear_252_1272" x1="217.615" y1="-27.2019" x2="208.06" y2="37.6501" gradientUnits="userSpaceOnUse">
<stop stop-color="#262FD6"/>
<stop offset="1" stop-color="#2657D7" stop-opacity="0"/>
</linearGradient>
<linearGradient id="paint4_linear_252_1272" x1="383.983" y1="-21.0032" x2="334.702" y2="112.355" gradientUnits="userSpaceOnUse">
<stop stop-color="#260075"/>
<stop offset="1" stop-color="#260076" stop-opacity="0"/>
</linearGradient>
<linearGradient id="paint5_linear_252_1272" x1="304.647" y1="-8.86074" x2="237.738" y2="151.231" gradientUnits="userSpaceOnUse">
<stop stop-color="#265AD7"/>
<stop offset="1" stop-color="#2647D7" stop-opacity="0"/>
</linearGradient>
<linearGradient id="paint6_linear_252_1272" x1="322.938" y1="57.9038" x2="278.834" y2="-83.2402" gradientUnits="userSpaceOnUse">
<stop stop-color="#265AD7"/>
<stop offset="1" stop-color="#2647D7" stop-opacity="0"/>
</linearGradient>
<linearGradient id="paint7_linear_252_1272" x1="228.022" y1="61.5758" x2="213.195" y2="-23.7405" gradientUnits="userSpaceOnUse">
<stop stop-color="#265AD7"/>
<stop offset="1" stop-color="#2647D7" stop-opacity="0"/>
</linearGradient>
<linearGradient id="paint8_linear_252_1272" x1="176.787" y1="66.7964" x2="170.066" y2="0.64463" gradientUnits="userSpaceOnUse">
<stop stop-color="#265AD7"/>
<stop offset="1" stop-color="#2647D7" stop-opacity="0"/>
</linearGradient>
<linearGradient id="paint9_linear_252_1272" x1="251.882" y1="55.0692" x2="250.018" y2="0.180029" gradientUnits="userSpaceOnUse">
<stop stop-color="#2637D7"/>
<stop offset="1" stop-color="#265FD7" stop-opacity="0"/>
</linearGradient>
<linearGradient id="paint10_linear_252_1272" x1="350.683" y1="53.9134" x2="345.735" y2="-35.4005" gradientUnits="userSpaceOnUse">
<stop stop-color="#2637D7"/>
<stop offset="1" stop-color="#265FD7" stop-opacity="0"/>
</linearGradient>
<linearGradient id="paint11_linear_252_1272" x1="-568.164" y1="-17.2533" x2="-550.421" y2="110.556" gradientUnits="userSpaceOnUse">
<stop stop-color="#2637D7"/>
<stop offset="1" stop-color="#265FD7" stop-opacity="0"/>
</linearGradient>
<linearGradient id="paint12_linear_252_1272" x1="555.253" y1="63.1746" x2="548.428" y2="-24.5509" gradientUnits="userSpaceOnUse">
<stop stop-color="#2637D7"/>
<stop offset="1" stop-color="#265FD7" stop-opacity="0"/>
</linearGradient>
<linearGradient id="paint13_linear_252_1272" x1="-589.812" y1="-30.5636" x2="-577.943" y2="83.5052" gradientUnits="userSpaceOnUse">
<stop stop-color="#2637D7"/>
<stop offset="1" stop-color="#265FD7" stop-opacity="0"/>
</linearGradient>
<linearGradient id="paint14_linear_252_1272" x1="-314.375" y1="35.1415" x2="-302.078" y2="-47.5491" gradientUnits="userSpaceOnUse">
<stop stop-color="#2637D7"/>
<stop offset="1" stop-color="#265FD7" stop-opacity="0"/>
</linearGradient>
<linearGradient id="paint15_linear_252_1272" x1="-434.556" y1="11.5073" x2="-293.856" y2="246.587" gradientUnits="userSpaceOnUse">
<stop stop-color="#2637D7"/>
<stop offset="1" stop-color="#265FD7" stop-opacity="0"/>
</linearGradient>
<linearGradient id="paint16_linear_252_1272" x1="-335.044" y1="47.536" x2="-328.507" y2="-23.9932" gradientUnits="userSpaceOnUse">
<stop stop-color="#2637D7"/>
<stop offset="1" stop-color="#265FD7" stop-opacity="0"/>
</linearGradient>
<linearGradient id="paint17_linear_252_1272" x1="187.742" y1="-22.5444" x2="186.872" y2="9.47543" gradientUnits="userSpaceOnUse">
<stop stop-color="#2637D7"/>
<stop offset="1" stop-color="#265FD7" stop-opacity="0"/>
</linearGradient>
<linearGradient id="paint18_linear_252_1272" x1="-653.268" y1="46.0048" x2="-623.78" y2="-116.339" gradientUnits="userSpaceOnUse">
<stop stop-color="#2637D7"/>
<stop offset="1" stop-color="#265FD7" stop-opacity="0"/>
</linearGradient>
<linearGradient id="paint19_linear_252_1272" x1="-255.27" y1="66.4099" x2="-207.092" y2="-99.2818" gradientUnits="userSpaceOnUse">
<stop stop-color="#2625D6"/>
<stop offset="1" stop-color="#265BD7" stop-opacity="0"/>
</linearGradient>
<linearGradient id="paint20_linear_252_1272" x1="485.612" y1="39.0736" x2="229.632" y2="-247.312" gradientUnits="userSpaceOnUse">
<stop stop-color="#263FD7"/>
<stop offset="1" stop-color="#265BD7" stop-opacity="0"/>
</linearGradient>
<linearGradient id="paint21_linear_252_1272" x1="-376.338" y1="77.8872" x2="-314.471" y2="-111.788" gradientUnits="userSpaceOnUse">
<stop stop-color="#2613BD"/>
<stop offset="1" stop-color="#2661D7" stop-opacity="0"/>
</linearGradient>
<linearGradient id="paint22_linear_252_1272" x1="656.31" y1="4.42391" x2="277.132" y2="326.912" gradientUnits="userSpaceOnUse">
<stop stop-color="#265ED7"/>
<stop offset="1" stop-color="#2646D7" stop-opacity="0"/>
</linearGradient>
<linearGradient id="paint23_linear_252_1272" x1="1104.04" y1="58.1214" x2="412.645" y2="-529.965" gradientUnits="userSpaceOnUse">
<stop stop-color="#261FD0"/>
<stop offset="1" stop-color="#264ED7" stop-opacity="0"/>
</linearGradient>
<linearGradient id="paint24_linear_252_1272" x1="-255.27" y1="66.4099" x2="-207.092" y2="-99.2818" gradientUnits="userSpaceOnUse">
<stop stop-color="#2625D6"/>
<stop offset="1" stop-color="#265BD7" stop-opacity="0"/>
</linearGradient>
<linearGradient id="paint25_linear_252_1272" x1="485.612" y1="39.0736" x2="229.632" y2="-247.312" gradientUnits="userSpaceOnUse">
<stop stop-color="#263FD7"/>
<stop offset="1" stop-color="#265BD7" stop-opacity="0"/>
</linearGradient>
<linearGradient id="paint26_linear_252_1272" x1="235.848" y1="75.2131" x2="226.348" y2="-8.29488" gradientUnits="userSpaceOnUse">
<stop stop-color="#FFF5FF"/>
<stop offset="1" stop-color="#2652C7" stop-opacity="0"/>
</linearGradient>
<linearGradient id="paint27_linear_252_1272" x1="469.512" y1="16.9811" x2="73.7058" y2="39.7351" gradientUnits="userSpaceOnUse">
<stop stop-color="#FFF5FF"/>
<stop offset="1" stop-color="#2652C7" stop-opacity="0"/>
</linearGradient>
<linearGradient id="paint28_linear_252_1272" x1="176.787" y1="66.7964" x2="170.066" y2="0.64463" gradientUnits="userSpaceOnUse">
<stop stop-color="#265AD7"/>
<stop offset="1" stop-color="#2647D7" stop-opacity="0"/>
</linearGradient>
<linearGradient id="paint29_linear_252_1272" x1="251.199" y1="39.3249" x2="214.584" y2="-50.5002" gradientUnits="userSpaceOnUse">
<stop stop-color="#260051"/>
<stop offset="1" stop-color="#260066" stop-opacity="0"/>
</linearGradient>
<linearGradient id="paint30_linear_252_1272" x1="-147.11" y1="9.38338" x2="25.6561" y2="131.665" gradientUnits="userSpaceOnUse">
<stop stop-color="#FFF5FF"/>
<stop offset="1" stop-color="#2652C7" stop-opacity="0"/>
</linearGradient>
<linearGradient id="paint31_linear_252_1272" x1="-353.509" y1="45.5612" x2="-345.632" y2="-30.9398" gradientUnits="userSpaceOnUse">
<stop stop-color="#260064"/>
<stop offset="1" stop-color="#260066" stop-opacity="0"/>
</linearGradient>
<linearGradient id="paint32_linear_252_1272" x1="518.037" y1="-7.23026" x2="501.038" y2="109.437" gradientUnits="userSpaceOnUse">
<stop stop-color="#FFF5FF"/>
<stop offset="1" stop-color="#2652C7" stop-opacity="0"/>
</linearGradient>
<linearGradient id="paint33_linear_252_1272" x1="345.978" y1="28.1444" x2="245.499" y2="-107.379" gradientUnits="userSpaceOnUse">
<stop stop-color="#2609B2"/>
<stop offset="1" stop-color="#2631C7" stop-opacity="0"/>
</linearGradient>
<linearGradient id="paint34_linear_252_1272" x1="390.489" y1="36.5559" x2="284.973" y2="-149.276" gradientUnits="userSpaceOnUse">
<stop stop-color="#262AB2"/>
<stop offset="1" stop-color="#2652C7" stop-opacity="0"/>
</linearGradient>
<linearGradient id="paint35_linear_252_1272" x1="-122.181" y1="50.7459" x2="-63.3394" y2="-100.529" gradientUnits="userSpaceOnUse">
<stop stop-color="#262AB2"/>
<stop offset="1" stop-color="#2652C7" stop-opacity="0"/>
</linearGradient>
<linearGradient id="paint36_linear_252_1272" x1="20.6935" y1="30.4794" x2="-4.25978" y2="23.4111" gradientUnits="userSpaceOnUse">
<stop stop-color="#262AB2"/>
<stop offset="1" stop-color="#2652C7" stop-opacity="0"/>
</linearGradient>
<clipPath id="clip0_252_1272">
<rect width="161" height="36" fill="white"/>
</clipPath>
</defs>
</svg>
